<svg width="16" height="24" viewBox="0 0 16 24" fill="none" xmlns="http://www.w3.org/2000/svg">
<path d="M12.4999 1.5C12.8978 1.5 13.2793 1.65804 13.5606 1.93934C13.8419 2.22064 13.9999 2.60218 13.9999 3V21C13.9999 21.3978 13.8419 21.7794 13.5606 22.0607C13.2793 22.342 12.8978 22.5 12.4999 22.5H3.49994C3.10211 22.5 2.72058 22.342 2.43928 22.0607C2.15797 21.7794 1.99994 21.3978 1.99994 21V3C1.99994 2.60218 2.15797 2.22064 2.43928 1.93934C2.72058 1.65804 3.10211 1.5 3.49994 1.5H12.4999ZM3.49994 0C2.70429 0 1.94123 0.316071 1.37862 0.87868C0.816009 1.44129 0.499939 2.20435 0.499939 3V21C0.499939 21.7956 0.816009 22.5587 1.37862 23.1213C1.94123 23.6839 2.70429 24 3.49994 24H12.4999C13.2956 24 14.0587 23.6839 14.6213 23.1213C15.1839 22.5587 15.4999 21.7956 15.4999 21V3C15.4999 2.20435 15.1839 1.44129 14.6213 0.87868C14.0587 0.316071 13.2956 0 12.4999 0L3.49994 0Z" fill="white"/>
<path d="M7.99994 21C8.39776 21 8.77929 20.842 9.0606 20.5607C9.3419 20.2794 9.49994 19.8978 9.49994 19.5C9.49994 19.1022 9.3419 18.7206 9.0606 18.4393C8.77929 18.158 8.39776 18 7.99994 18C7.60211 18 7.22058 18.158 6.93928 18.4393C6.65797 18.7206 6.49994 19.1022 6.49994 19.5C6.49994 19.8978 6.65797 20.2794 6.93928 20.5607C7.22058 20.842 7.60211 21 7.99994 21Z" fill="white"/>
</svg>
