<svg width="28" height="28" viewBox="0 0 28 28" fill="none" xmlns="http://www.w3.org/2000/svg">
<path fill-rule="evenodd" clip-rule="evenodd" d="M8.2268 0.666992H19.7868C24.3068 0.666992 27.3335 3.84033 27.3335 8.56033V19.455C27.3335 24.1603 24.3068 27.3337 19.7868 27.3337H8.2268C3.7068 27.3337 0.666801 24.1603 0.666801 19.455V8.56033C0.666801 3.84033 3.7068 0.666992 8.2268 0.666992ZM13.2401 17.987L19.5735 11.6537C20.0268 11.2003 20.0268 10.467 19.5735 10.0003C19.1201 9.54699 18.3735 9.54699 17.9201 10.0003L12.4135 15.507L10.0801 13.1737C9.6268 12.7203 8.88014 12.7203 8.4268 13.1737C7.97347 13.627 7.97347 14.3603 8.4268 14.827L11.6001 17.987C11.8268 18.2137 12.1201 18.3203 12.4135 18.3203C12.7201 18.3203 13.0135 18.2137 13.2401 17.987Z" fill="#B61F2E"/>
</svg>
