<svg width="20" height="20" viewBox="0 0 20 20" fill="none" xmlns="http://www.w3.org/2000/svg">
<path d="M5.68416 7.86521C5.68416 7.70231 5.55213 7.57031 5.38927 7.57031H3.26835C3.10549 7.57031 2.97345 7.70231 2.97345 7.86521V9.98609C2.97345 10.149 3.10549 10.281 3.26835 10.281H5.38927C5.55213 10.281 5.68416 10.149 5.68416 9.98609V7.86521ZM5.09437 9.69119H3.56325V8.16011H5.09437V9.69119Z" fill="#7C8893"/>
<path d="M9.46499 7.86521C9.46499 7.70231 9.33295 7.57031 9.17009 7.57031H7.04917C6.88631 7.57031 6.75427 7.70231 6.75427 7.86521V9.98609C6.75427 10.149 6.88631 10.281 7.04917 10.281H9.17009C9.33295 10.281 9.46499 10.149 9.46499 9.98609V7.86521ZM8.87519 9.69119H7.34407V8.16011H8.87519V9.69119Z" fill="#7C8893"/>
<path d="M13.2457 7.86521C13.2457 7.70231 13.1137 7.57031 12.9509 7.57031H10.8299C10.667 7.57031 10.535 7.70231 10.535 7.86521V9.98609C10.535 10.149 10.667 10.281 10.8299 10.281H12.9509C13.1137 10.281 13.2457 10.149 13.2457 9.98609V7.86521ZM12.656 9.69119H11.1248V8.16011H12.656V9.69119Z" fill="#7C8893"/>
<path d="M14.6107 10.281H16.7316C16.8945 10.281 17.0265 10.149 17.0265 9.98609V7.86521C17.0265 7.70231 16.8945 7.57031 16.7316 7.57031H14.6107C14.4478 7.57031 14.3158 7.70231 14.3158 7.86521V9.98609C14.3158 10.149 14.4478 10.281 14.6107 10.281ZM14.9056 8.16011H16.4367V9.69119H14.9056V8.16011Z" fill="#7C8893"/>
<path d="M5.68416 11.7031C5.68416 11.5402 5.55213 11.4082 5.38927 11.4082H3.26835C3.10549 11.4082 2.97345 11.5402 2.97345 11.7031V13.824C2.97345 13.9869 3.10549 14.1189 3.26835 14.1189H5.38927C5.55213 14.1189 5.68416 13.9869 5.68416 13.824V11.7031ZM5.09437 13.5291H3.56325V11.998H5.09437V13.5291Z" fill="#7C8893"/>
<path d="M9.46499 11.7031C9.46499 11.5402 9.33295 11.4082 9.17009 11.4082H7.04917C6.88631 11.4082 6.75427 11.5402 6.75427 11.7031V13.824C6.75427 13.9869 6.88631 14.1189 7.04917 14.1189H9.17009C9.33295 14.1189 9.46499 13.9869 9.46499 13.824V11.7031ZM8.87519 13.5291H7.34407V11.998H8.87519V13.5291Z" fill="#7C8893"/>
<path d="M13.2457 11.7031C13.2457 11.5402 13.1137 11.4082 12.9509 11.4082H10.8299C10.667 11.4082 10.535 11.5402 10.535 11.7031V13.824C10.535 13.9869 10.667 14.1189 10.8299 14.1189H12.9509C13.1137 14.1189 13.2457 13.9869 13.2457 13.824V11.7031ZM12.656 13.5291H11.1248V11.998H12.656V13.5291Z" fill="#7C8893"/>
<path d="M14.3158 13.824C14.3158 13.9869 14.4478 14.1189 14.6107 14.1189H16.7316C16.8945 14.1189 17.0265 13.9869 17.0265 13.824V11.7031C17.0265 11.5402 16.8945 11.4082 16.7316 11.4082H14.6107C14.4478 11.4082 14.3158 11.5402 14.3158 11.7031V13.824ZM14.9056 11.998H16.4367V13.5291H14.9056V11.998Z" fill="#7C8893"/>
<path d="M5.38927 15.2461H3.26835C3.10549 15.2461 2.97345 15.3781 2.97345 15.541V17.6619C2.97345 17.8248 3.10549 17.9568 3.26835 17.9568H5.38927C5.55213 17.9568 5.68416 17.8248 5.68416 17.6619V15.541C5.68416 15.3781 5.55213 15.2461 5.38927 15.2461ZM5.09437 17.367H3.56325V15.8359H5.09437V17.367Z" fill="#7C8893"/>
<path d="M9.17009 15.2461H7.04917C6.88631 15.2461 6.75427 15.3781 6.75427 15.541V17.6619C6.75427 17.8248 6.88631 17.9568 7.04917 17.9568H9.17009C9.33295 17.9568 9.46499 17.8248 9.46499 17.6619V15.541C9.46499 15.3781 9.33295 15.2461 9.17009 15.2461ZM8.87519 17.367H7.34407V15.8359H8.87519V17.367Z" fill="#7C8893"/>
<path d="M12.9509 15.2461H10.8299C10.667 15.2461 10.535 15.3781 10.535 15.541V17.6619C10.535 17.8248 10.667 17.9568 10.8299 17.9568H12.9509C13.1137 17.9568 13.2457 17.8248 13.2457 17.6619V15.541C13.2457 15.3781 13.1138 15.2461 12.9509 15.2461ZM12.656 17.367H11.1248V15.8359H12.656V17.367Z" fill="#7C8893"/>
<path d="M14.3158 17.6619C14.3158 17.8248 14.4478 17.9568 14.6107 17.9568H16.7316C16.8945 17.9568 17.0265 17.8248 17.0265 17.6619V15.541C17.0265 15.3781 16.8945 15.2461 16.7316 15.2461H14.6107C14.4478 15.2461 14.3158 15.3781 14.3158 15.541V17.6619ZM14.9056 15.8359H16.4367V17.367H14.9056V15.8359Z" fill="#7C8893"/>
<path d="M18.2821 2.18894H17.9184V1.06073C17.9184 0.47585 17.4425 0 16.8577 0C16.2728 0 15.7969 0.47585 15.7969 1.06073V2.18894H14.4895V1.06073C14.4895 0.47585 14.0137 0 13.4288 0C12.8439 0 12.3681 0.47585 12.3681 1.06073V2.18894H11.0607V1.06073C11.0607 0.47585 10.5849 0 9.99999 0C9.4151 0 8.93925 0.47585 8.93925 1.06073V2.18894H7.63183V1.06073C7.63186 0.47585 7.15601 0 6.57113 0C5.98625 0 5.5104 0.47585 5.5104 1.06073V2.18894H4.20297V1.06073C4.20301 0.47585 3.7272 0 3.14232 0C2.55743 0 2.08158 0.47585 2.08158 1.06073V2.18894H1.71783C1.04857 2.18894 0.504028 2.73348 0.504028 3.40275V18.7862C0.504028 19.4555 1.04853 20 1.71783 20H13.015C13.1779 20 13.3099 19.868 13.3099 19.7051C13.3099 19.5422 13.1779 19.4102 13.015 19.4102H1.71783C1.37378 19.4102 1.09383 19.1303 1.09383 18.7862V6.17138H4.8584C5.02126 6.17138 5.15329 6.03938 5.15329 5.87648C5.15329 5.71358 5.02126 5.58158 4.8584 5.58158H1.09383V3.40275C1.09383 3.05866 1.37375 2.77874 1.71783 2.77874H2.08158V3.21362C2.08158 3.7985 2.55743 4.27435 3.14232 4.27435C3.7272 4.27435 4.20305 3.7985 4.20305 3.21362V2.77874H5.51048V3.21362C5.51048 3.7985 5.98633 4.27435 6.57121 4.27435C7.15609 4.27435 7.63194 3.7985 7.63194 3.21362V2.77874H8.93937V3.21362C8.93937 3.7985 9.41522 4.27435 10.0001 4.27435C10.585 4.27435 11.0608 3.7985 11.0608 3.21362V2.77874H12.3682V3.21362C12.3682 3.7985 12.8441 4.27435 13.429 4.27435C14.0138 4.27435 14.4897 3.7985 14.4897 3.21362V2.77874H15.7971V3.21362C15.7971 3.7985 16.273 4.27435 16.8579 4.27435C17.4427 4.27435 17.9186 3.7985 17.9186 3.21362V2.77874H18.2823C18.6264 2.77874 18.9063 3.05866 18.9063 3.40275V5.58158H6.03803C5.87517 5.58158 5.74313 5.71358 5.74313 5.87648C5.74313 6.03938 5.87517 6.17138 6.03803 6.17138H18.9062V18.7862C18.9062 19.1303 18.6263 19.4102 18.2822 19.4102H14.1946C14.0317 19.4102 13.8997 19.5422 13.8997 19.7051C13.8997 19.868 14.0317 20 14.1946 20H18.2821C18.9514 20 19.4959 19.4555 19.4959 18.7862V3.40275C19.4959 2.73348 18.9514 2.18894 18.2821 2.18894ZM3.61321 3.21362C3.61321 3.47329 3.40199 3.68455 3.14228 3.68455C2.88261 3.68455 2.67134 3.47329 2.67134 3.21362V1.06073C2.67138 0.801065 2.88265 0.589799 3.14232 0.589799C3.40199 0.589799 3.61325 0.801065 3.61325 1.06073L3.61321 3.21362ZM7.04207 3.21362C7.04207 3.47329 6.8308 3.68455 6.57113 3.68455C6.31146 3.68455 6.1002 3.47329 6.1002 3.21362V1.06073C6.1002 0.801065 6.31146 0.589799 6.57113 0.589799C6.8308 0.589799 7.04207 0.801065 7.04207 1.06073V3.21362ZM10.4709 3.21362C10.4709 3.47329 10.2597 3.68455 9.99999 3.68455C9.74032 3.68455 9.52905 3.47329 9.52905 3.21362V1.06073C9.52905 0.801065 9.74032 0.589799 9.99999 0.589799C10.2597 0.589799 10.4709 0.801065 10.4709 1.06073V3.21362ZM13.8997 3.21362C13.8997 3.47329 13.6885 3.68455 13.4288 3.68455C13.1692 3.68455 12.9579 3.47329 12.9579 3.21362V1.06073C12.9579 0.801065 13.1691 0.589799 13.4288 0.589799C13.6885 0.589799 13.8997 0.801065 13.8997 1.06073V3.21362ZM17.3286 3.21362C17.3286 3.47329 17.1173 3.68455 16.8577 3.68455C16.598 3.68455 16.3867 3.47329 16.3867 3.21362V1.06073C16.3867 0.801065 16.598 0.589799 16.8577 0.589799C17.1173 0.589799 17.3286 0.801065 17.3286 1.06073V3.21362Z" fill="#7C8893"/>
</svg>
