<svg width="76" height="76" viewBox="0 0 76 76" fill="none" xmlns="http://www.w3.org/2000/svg">
<path d="M26.7516 35.4547C33.5703 35.4547 39.1187 29.9078 39.1187 23.0875C39.1187 16.2672 33.5719 10.7203 26.7516 10.7203C19.9312 10.7203 14.3844 16.2672 14.3844 23.0875C14.3844 29.9078 19.9328 35.4547 26.7516 35.4547ZM26.7516 12.5969C32.5359 12.5969 37.2437 17.3031 37.2437 23.0891C37.2437 28.875 32.5375 33.5812 26.7516 33.5812C20.9656 33.5812 16.2594 28.875 16.2594 23.0891C16.2594 17.3031 20.9656 12.5969 26.7516 12.5969ZM57.275 49.3203H50.1469C46.9922 44.7938 41.8844 42.1063 36.3828 42.1063H17.1172C7.86875 42.1078 0.34375 49.6328 0.34375 58.8813V74.7188C0.34375 75.2359 0.764062 75.6562 1.28125 75.6562H49.6484H57.275C57.7922 75.6562 58.2125 75.2359 58.2125 74.7188V50.2578C58.2125 49.7406 57.7922 49.3203 57.275 49.3203ZM48.7109 50.5438V73.7812H44.8172V54.9156C44.8172 54.3984 44.3969 53.9781 43.8797 53.9781H36.2531C35.7359 53.9781 35.3156 54.3984 35.3156 54.9156V73.7812H29.3875L32 67.3594C32.0578 67.2188 32.0797 67.0672 32.0656 66.9172L30.4156 49.7281L32.8719 43.9828H36.3844C41.3297 43.9828 45.9156 46.4297 48.7109 50.5438ZM42.9422 73.7812H37.1906V55.8531H42.9422V73.7812ZM28.8406 48.6422H24.6625L22.6703 43.9828H30.8312L28.8406 48.6422ZM24.8953 50.5172H28.6062L30.1766 66.8672L27.3641 73.7828H26.1375L23.325 66.8672L24.8953 50.5172ZM2.21875 58.8813C2.21875 50.6656 8.90312 43.9813 17.1187 43.9813H20.6312L23.0875 49.7266L21.4375 66.9172C21.4234 67.0672 21.4453 67.2203 21.5031 67.3594L24.1156 73.7812H14.1391V58.0656C14.1391 57.5484 13.7187 57.1281 13.2016 57.1281C12.6844 57.1281 12.2641 57.5484 12.2641 58.0656V73.7812H2.21875V58.8813ZM56.3375 73.7812H50.5859V51.1953H56.3375V73.7812ZM75.4516 42.2766L67.5906 32.4219C67.4125 32.1984 67.1437 32.0687 66.8578 32.0687C66.5719 32.0687 66.3031 32.1984 66.125 32.4219L58.2641 42.2766C58.0391 42.5578 57.9953 42.9437 58.1516 43.2672C58.3078 43.5922 58.6359 43.7984 58.9969 43.7984H62.1078V74.7188C62.1078 75.2359 62.5281 75.6562 63.0453 75.6562H70.6719C71.1891 75.6562 71.6094 75.2359 71.6094 74.7188V43.7984H74.7187C75.0797 43.7984 75.4078 43.5922 75.5641 43.2672C75.7203 42.9437 75.6766 42.5578 75.4516 42.2766ZM70.6703 41.9234C70.1531 41.9234 69.7328 42.3437 69.7328 42.8609V73.7812H63.9812V42.8609C63.9812 42.3437 63.5609 41.9234 63.0437 41.9234H60.9422L66.8562 34.5094L72.7703 41.9234H70.6703ZM52.0531 10.2016L53.6219 11.5625C53.6719 11.6063 53.6844 11.6422 53.6734 11.7078C53.5828 12.2469 53.5359 12.7984 53.5359 13.3469C53.5359 13.8953 53.5812 14.4469 53.6734 14.9875C53.6844 15.0516 53.6719 15.0891 53.6219 15.1313L52.0531 16.4922C51.3203 17.1281 51.1406 18.2016 51.625 19.0422L52.5562 20.6547C53.0422 21.4953 54.0609 21.8766 54.9781 21.5594L56.9422 20.8813C57.0047 20.8594 57.0422 20.8672 57.0937 20.9094C57.9453 21.6141 58.9 22.1672 59.9328 22.55C59.9937 22.5734 60.0187 22.6031 60.0328 22.6672L60.4281 24.7047C60.6125 25.6578 61.4516 26.35 62.4219 26.35H64.2828C65.2531 26.35 66.0922 25.6578 66.2781 24.7047L66.6734 22.6672C66.6859 22.6031 66.7109 22.5734 66.7719 22.55C67.8047 22.1656 68.7594 21.6141 69.6109 20.9094C69.6625 20.8672 69.7 20.8609 69.7625 20.8813L71.7266 21.5594C72.6437 21.8766 73.6625 21.4953 74.1484 20.6547L75.0797 19.0422C75.5656 18.2016 75.3859 17.1297 74.6516 16.4922L73.0828 15.1313C73.0328 15.0875 73.0203 15.0516 73.0312 14.9859C73.1219 14.4469 73.1687 13.8953 73.1687 13.3469C73.1687 12.7984 73.1234 12.2469 73.0312 11.7063C73.0203 11.6406 73.0328 11.6047 73.0828 11.5625L74.6516 10.2016C75.3844 9.56562 75.5641 8.49219 75.0797 7.65156L74.1484 6.03906C73.6625 5.19844 72.6437 4.81719 71.7266 5.13438L69.7625 5.8125C69.7 5.83437 69.6625 5.82656 69.6109 5.78438C68.7594 5.07969 67.8047 4.52656 66.7719 4.14375C66.7109 4.12031 66.6844 4.09063 66.6719 4.02656L66.2766 1.98906C66.0937 1.03594 65.2547 0.34375 64.2828 0.34375H62.4219C61.4516 0.34375 60.6125 1.03594 60.4281 1.98906L60.0328 4.02656C60.0203 4.09063 59.9953 4.12031 59.9328 4.14375C58.9 4.52812 57.9453 5.07969 57.0937 5.78438C57.0437 5.82656 57.0047 5.83281 56.9422 5.8125L54.9781 5.13438C54.0609 4.81875 53.0422 5.19844 52.5562 6.03906L51.625 7.65156C51.1406 8.49219 51.3203 9.56406 52.0531 10.2016ZM53.25 8.58906L54.1812 6.97656C54.2203 6.90781 54.2922 6.88125 54.3687 6.90625L56.3328 7.58437C57.0078 7.81719 57.7406 7.68438 58.2906 7.22813C58.9797 6.65781 59.7516 6.21094 60.5875 5.9C61.2578 5.65156 61.7391 5.08437 61.875 4.38281L62.2703 2.34531C62.2859 2.26719 62.3437 2.21875 62.4234 2.21875H64.2844C64.3641 2.21875 64.4234 2.26719 64.4375 2.34531L64.8328 4.38281C64.9687 5.08437 65.45 5.65156 66.1203 5.9C66.9547 6.20938 67.7281 6.65625 68.4172 7.22813C68.9672 7.68438 69.7 7.81719 70.375 7.58437L72.3391 6.90625C72.4141 6.87969 72.4859 6.90781 72.5266 6.97656L73.4578 8.58906C73.4984 8.65781 73.4844 8.73281 73.425 8.78594L71.8562 10.1484C71.3172 10.6172 71.0672 11.3156 71.1844 12.0203C71.2578 12.4563 71.2953 12.9031 71.2953 13.3484C71.2953 13.7938 71.2578 14.2406 71.1844 14.6766C71.0656 15.3813 71.3172 16.0797 71.8562 16.5484L73.425 17.9094C73.4859 17.9609 73.4984 18.0375 73.4578 18.1062L72.5266 19.7188C72.4859 19.7875 72.4156 19.8141 72.3391 19.7891L70.375 19.1109C69.7 18.8781 68.9672 19.0109 68.4172 19.4672C67.7281 20.0375 66.9562 20.4844 66.1203 20.7953C65.45 21.0438 64.9687 21.6109 64.8328 22.3125L64.4375 24.35C64.4219 24.4281 64.3641 24.4766 64.2844 24.4766H62.4219C62.3422 24.4766 62.2828 24.4281 62.2687 24.35L61.8734 22.3125C61.7375 21.6109 61.2562 21.0438 60.5859 20.7953C59.7516 20.4859 58.9781 20.0391 58.2891 19.4688C57.9172 19.1609 57.4625 19 56.9984 19C56.775 19 56.55 19.0375 56.3312 19.1125L54.3672 19.7906C54.2922 19.8172 54.2203 19.7906 54.1797 19.7203L53.2484 18.1078C53.2078 18.0391 53.2219 17.9641 53.2812 17.9109L54.85 16.5484C55.3891 16.0797 55.6406 15.3797 55.5219 14.6766C55.4484 14.2406 55.4109 13.7938 55.4109 13.3484C55.4109 12.9031 55.4484 12.4563 55.5219 12.0203C55.6406 11.3172 55.3891 10.6172 54.85 10.1484L53.2812 8.7875C53.2219 8.73281 53.2094 8.65781 53.25 8.58906ZM63.3531 19.05C66.4984 19.05 69.0562 16.4922 69.0562 13.3469C69.0562 10.2016 66.4984 7.64375 63.3531 7.64375C60.2078 7.64375 57.65 10.2016 57.65 13.3469C57.65 16.4922 60.2078 19.05 63.3531 19.05ZM63.3531 9.51875C65.4641 9.51875 67.1812 11.2359 67.1812 13.3469C67.1812 15.4578 65.4641 17.175 63.3531 17.175C61.2422 17.175 59.525 15.4578 59.525 13.3469C59.525 11.2359 61.2422 9.51875 63.3531 9.51875Z" fill="#B61F2E"/>
</svg>
