<svg width="80" height="80" viewBox="0 0 80 80" fill="none" xmlns="http://www.w3.org/2000/svg">
<path d="M79.7673 42.1469C79.7673 35.7617 74.5728 30.5672 68.1878 30.5672C64.0848 30.5672 60.4761 32.7141 58.4187 35.9416L55.3086 34.3841C55.8565 32.9655 56.1519 31.4305 56.1519 29.8391C56.1519 27.1853 55.3206 24.7233 53.9083 22.6948L61.2153 16.5347C62.5397 17.6842 64.2661 18.3823 66.1533 18.3823C70.3134 18.3823 73.698 14.9978 73.698 10.8377C73.698 6.6775 70.3134 3.29297 66.1533 3.29297C61.9931 3.29297 58.6086 6.6775 58.6086 10.8377C58.6086 12.267 59.0083 13.6048 59.7015 14.7453L52.3969 20.9034C50.7828 19.317 48.7423 18.1652 46.4653 17.6336L47.3045 11.4853C50.169 11.2667 52.4334 8.86781 52.4334 5.94828C52.4334 2.88516 49.9415 0.393281 46.8784 0.393281C43.8153 0.393281 41.3234 2.88547 41.3234 5.94844C41.3234 8.34594 42.8501 10.3931 44.9822 11.1698L44.1431 17.3166C43.9679 17.3092 43.7925 17.3031 43.6156 17.3031C40.3894 17.3031 37.4444 18.5292 35.2205 20.5391L32.8642 18.3747C34.2983 16.4561 35.1486 14.077 35.1486 11.503C35.1486 8.83844 34.2161 6.24078 32.5228 4.18844C32.1111 3.68937 31.3725 3.61844 30.8731 4.03031C30.3739 4.44219 30.3031 5.18078 30.715 5.68C32.0626 7.31344 32.8048 9.38141 32.8048 11.503C32.8048 16.5527 28.6959 20.6608 23.6455 20.6608C18.5959 20.6608 14.4876 16.5527 14.4876 11.503C14.4876 6.4525 18.5958 2.34359 23.6455 2.34359C24.96 2.34359 26.2286 2.61562 27.4161 3.15219C28.0059 3.41875 28.7001 3.15656 28.9665 2.56672C29.233 1.97687 28.9709 1.28266 28.3811 1.01625C26.8883 0.342031 25.295 0 23.6455 0C17.3036 0 12.1439 5.16031 12.1439 11.5031C12.1439 17.8452 17.3034 23.0047 23.6455 23.0047C26.5717 23.0047 29.2445 21.9048 31.2769 20.0991L33.6358 22.2658C32.2573 24.0784 31.3611 26.2756 31.1381 28.6661H19.5584C18.9775 23.8689 14.8836 20.1389 9.93217 20.1389C4.58389 20.1389 0.232483 24.4902 0.232483 29.8384C0.232483 35.1867 4.58373 39.538 9.93217 39.538C14.8839 39.538 18.978 35.8075 19.5584 31.0097H31.1384C31.3173 32.9027 31.9244 34.7064 32.882 36.2977L28.68 39.3963C27.3164 38.0489 25.4442 37.2152 23.3803 37.2152C19.2201 37.2152 15.8356 40.5997 15.8356 44.7598C15.8356 48.92 19.2201 52.3045 23.3803 52.3045C27.5405 52.3045 30.925 48.92 30.925 44.7598C30.925 43.5058 30.6158 42.3233 30.072 41.2817L34.2722 38.1844C35.2355 39.2658 36.3898 40.1866 37.6986 40.8886L37.699 58.2595L34.9364 55.4978C33.7236 54.285 32.1117 53.617 30.3976 53.617C28.6836 53.617 27.0717 54.2848 25.8589 55.4978C24.6461 56.7106 23.9781 58.3228 23.9781 60.0373C23.9781 61.7519 24.6459 63.3641 25.8589 64.577L37.0539 75.7688C39.7555 78.4717 43.4569 79.9997 47.2694 79.9995C47.4081 79.9995 61.4437 79.9934 61.4437 79.9934C69.4054 79.9934 75.8828 73.5155 75.8828 65.5528V64.2278C75.8828 63.5806 75.3583 63.0559 74.7109 63.0559C74.0636 63.0559 73.539 63.5806 73.539 64.2278V65.5528C73.539 72.223 68.1131 77.6497 61.4437 77.6497C61.4437 77.6497 47.645 77.6498 47.633 77.6502C44.2595 77.7536 41.0948 76.4964 38.7112 74.1116L27.5161 62.9195C26.7459 62.1494 26.3217 61.1258 26.3217 60.0372C26.3217 58.9486 26.7458 57.925 27.5159 57.1548C29.1048 55.5659 31.6901 55.5659 33.2792 57.155L38.0433 61.9175C38.3786 62.2527 38.8828 62.3527 39.3204 62.1712C39.7584 61.9897 40.0437 61.5623 40.0436 61.0883L40.042 31.6995C40.042 29.8756 41.5265 28.3917 43.3514 28.3917C44.2356 28.3917 45.0658 28.7356 45.6908 29.3617C46.3153 29.985 46.6592 30.8153 46.6592 31.6994L46.6594 53.6086C46.6594 54.2558 47.1839 54.7805 47.8312 54.7805C48.4786 54.7805 49.0031 54.2558 49.0031 53.6086V49.2397C49.0031 49.2392 49.0031 49.2388 49.0031 49.2383C49.004 47.4142 50.4875 45.9305 52.3108 45.9305C54.1347 45.9305 55.6186 47.415 55.6186 49.2398V53.6084C55.6186 54.2556 56.1431 54.7803 56.7905 54.7803C57.4378 54.7803 57.9623 54.2556 57.9623 53.6084V51.3656C57.9623 49.5408 59.4462 48.0563 61.2701 48.0563C63.095 48.0563 64.5795 49.5408 64.5795 51.3656V53.0094C64.5795 53.6566 65.104 54.1813 65.7514 54.1813C66.3987 54.1813 66.9233 53.6566 66.9233 53.0094C66.9233 52.1239 67.2669 51.2941 67.8934 50.67C68.5406 50.0217 69.4048 49.6772 70.3206 49.7028C72.0951 49.7494 73.539 51.2656 73.539 53.0828V59.5406C73.539 60.1878 74.0636 60.7125 74.7109 60.7125C75.3583 60.7125 75.8828 60.1878 75.8828 59.5406V53.0828C75.8828 52.3889 75.7562 51.7214 75.5269 51.1019C78.1984 48.9117 79.7673 45.6333 79.7673 42.1469ZM43.6672 5.94844C43.6672 4.17766 45.1078 2.73719 46.8784 2.73719C48.649 2.73719 50.0897 4.17766 50.0897 5.94844C50.0897 7.71922 48.649 9.15969 46.8784 9.15969C45.1078 9.15969 43.6672 7.71922 43.6672 5.94844ZM23.3804 49.9611C20.5126 49.9611 18.1795 47.628 18.1795 44.7602C18.1795 41.8923 20.5126 39.5592 23.3804 39.5592C26.2483 39.5592 28.5814 41.8923 28.5814 44.7602C28.5814 47.628 26.2483 49.9611 23.3804 49.9611ZM66.1531 5.63672C69.0209 5.63672 71.354 7.96984 71.354 10.8377C71.354 13.7055 69.0209 16.0386 66.1531 16.0386C63.2853 16.0386 60.9522 13.7055 60.9522 10.8377C60.9522 7.96984 63.2851 5.63672 66.1531 5.63672ZM9.93217 37.1944C5.87623 37.1944 2.57623 33.8945 2.57623 29.8386C2.57623 25.7827 5.87608 22.4828 9.93217 22.4828C13.9883 22.4828 17.288 25.7827 17.288 29.8386C17.288 33.8945 13.9881 37.1944 9.93217 37.1944ZM43.3517 26.0484C40.2345 26.0484 37.6986 28.5838 37.6986 31.7L37.6987 38.1348C35.0558 36.2434 33.4251 33.158 33.4251 29.8392C33.4251 24.2192 37.9965 19.647 43.6158 19.647C49.2358 19.647 53.808 24.2192 53.808 29.8392C53.808 33.4242 51.9687 36.658 49.0033 38.4941V31.7C49.0033 30.1889 48.4148 28.7695 47.3483 27.705C46.2822 26.6367 44.8628 26.0484 43.3517 26.0484ZM52.3111 43.5875C51.0769 43.5875 49.9337 43.9853 49.0033 44.6594V41.1581C51.2147 40.1092 53.02 38.4752 54.2625 36.4814L57.3648 38.035C56.8773 39.3138 56.6079 40.6991 56.6079 42.1469C56.6079 43.8305 56.9758 45.4903 57.6773 47.0067C57.6339 47.0425 57.5903 47.0781 57.548 47.1153C56.7067 45.0483 54.6762 43.5875 52.3111 43.5875ZM70.3829 47.3598C68.8731 47.3192 67.4454 47.8648 66.3554 48.8967C65.4373 47.0133 63.503 45.7125 61.2705 45.7125C60.7465 45.7125 60.2394 45.7847 59.7575 45.9188C59.2289 44.7381 58.9517 43.4517 58.9517 42.1469C58.9517 37.0541 63.095 32.9109 68.1876 32.9109C73.2803 32.9109 77.4234 37.0542 77.4234 42.1469C77.4234 44.8267 76.2606 47.3525 74.2687 49.0963C73.2729 48.0608 71.8986 47.3997 70.3829 47.3598Z" fill="#B61F2E"/>
</svg>
