<svg width="106" height="18" viewBox="0 0 106 18" fill="none" xmlns="http://www.w3.org/2000/svg">
<g clip-path="url(#clip0_6_1769)">
<path d="M13.17 15.7502C13.0501 15.7506 12.9318 15.7223 12.825 15.6677L9.00001 13.6652L5.17501 15.6677C5.0508 15.733 4.91076 15.7621 4.77081 15.7518C4.63086 15.7415 4.49661 15.6921 4.38333 15.6093C4.27004 15.5265 4.18226 15.4135 4.12997 15.2833C4.07767 15.1531 4.06296 15.0108 4.08751 14.8727L4.83751 10.6502L1.74751 7.65015C1.6511 7.55395 1.58271 7.4333 1.54968 7.30117C1.51664 7.16904 1.52021 7.03041 1.56001 6.90015C1.60347 6.76686 1.68344 6.64842 1.79082 6.55827C1.8982 6.46812 2.0287 6.40988 2.16751 6.39015L6.44251 5.76765L8.32501 1.92015C8.38642 1.79335 8.48231 1.68641 8.60169 1.61158C8.72107 1.53676 8.85911 1.49707 9.00001 1.49707C9.1409 1.49707 9.27894 1.53676 9.39832 1.61158C9.5177 1.68641 9.61359 1.79335 9.67501 1.92015L11.58 5.76015L15.855 6.38265C15.9938 6.40238 16.1243 6.46063 16.2317 6.55077C16.3391 6.64092 16.419 6.75936 16.4625 6.89265C16.5023 7.02291 16.5059 7.16154 16.4728 7.29367C16.4398 7.4258 16.3714 7.54645 16.275 7.64265L13.185 10.6427L13.935 14.8652C13.9618 15.0058 13.9478 15.1511 13.8946 15.284C13.8414 15.4169 13.7514 15.5318 13.635 15.6152C13.4992 15.7103 13.3357 15.7578 13.17 15.7502Z" fill="#B61F2E"/>
</g>
<g clip-path="url(#clip1_6_1769)">
<path d="M35.17 15.7502C35.0501 15.7506 34.9318 15.7223 34.825 15.6677L31 13.6652L27.175 15.6677C27.0508 15.733 26.9108 15.7621 26.7708 15.7518C26.6309 15.7415 26.4966 15.6921 26.3833 15.6093C26.27 15.5265 26.1823 15.4135 26.13 15.2833C26.0777 15.1531 26.063 15.0108 26.0875 14.8727L26.8375 10.6502L23.7475 7.65015C23.6511 7.55395 23.5827 7.4333 23.5497 7.30117C23.5166 7.16904 23.5202 7.03041 23.56 6.90015C23.6035 6.76686 23.6834 6.64842 23.7908 6.55827C23.8982 6.46812 24.0287 6.40988 24.1675 6.39015L28.4425 5.76765L30.325 1.92015C30.3864 1.79335 30.4823 1.68641 30.6017 1.61158C30.7211 1.53676 30.8591 1.49707 31 1.49707C31.1409 1.49707 31.2789 1.53676 31.3983 1.61158C31.5177 1.68641 31.6136 1.79335 31.675 1.92015L33.58 5.76015L37.855 6.38265C37.9938 6.40238 38.1243 6.46063 38.2317 6.55077C38.3391 6.64092 38.419 6.75936 38.4625 6.89265C38.5023 7.02291 38.5059 7.16154 38.4728 7.29367C38.4398 7.4258 38.3714 7.54645 38.275 7.64265L35.185 10.6427L35.935 14.8652C35.9618 15.0058 35.9478 15.1511 35.8946 15.284C35.8414 15.4169 35.7514 15.5318 35.635 15.6152C35.4992 15.7103 35.3357 15.7578 35.17 15.7502Z" fill="#B61F2E"/>
</g>
<g clip-path="url(#clip2_6_1769)">
<path d="M57.17 15.7502C57.0501 15.7506 56.9317 15.7223 56.825 15.6677L53 13.6652L49.175 15.6677C49.0508 15.733 48.9108 15.7621 48.7708 15.7518C48.6309 15.7415 48.4966 15.6921 48.3833 15.6093C48.27 15.5265 48.1823 15.4135 48.13 15.2833C48.0777 15.1531 48.063 15.0108 48.0875 14.8727L48.8375 10.6502L45.7475 7.65015C45.6511 7.55395 45.5827 7.4333 45.5497 7.30117C45.5166 7.16904 45.5202 7.03041 45.56 6.90015C45.6035 6.76686 45.6834 6.64842 45.7908 6.55827C45.8982 6.46812 46.0287 6.40988 46.1675 6.39015L50.4425 5.76765L52.325 1.92015C52.3864 1.79335 52.4823 1.68641 52.6017 1.61158C52.7211 1.53676 52.8591 1.49707 53 1.49707C53.1409 1.49707 53.2789 1.53676 53.3983 1.61158C53.5177 1.68641 53.6136 1.79335 53.675 1.92015L55.58 5.76015L59.855 6.38265C59.9938 6.40238 60.1243 6.46063 60.2317 6.55077C60.3391 6.64092 60.419 6.75936 60.4625 6.89265C60.5023 7.02291 60.5059 7.16154 60.4728 7.29367C60.4398 7.4258 60.3714 7.54645 60.275 7.64265L57.185 10.6427L57.935 14.8652C57.9618 15.0058 57.9478 15.1511 57.8946 15.284C57.8414 15.4169 57.7514 15.5318 57.635 15.6152C57.4992 15.7103 57.3357 15.7578 57.17 15.7502Z" fill="#B61F2E"/>
</g>
<g clip-path="url(#clip3_6_1769)">
<path d="M79.17 15.7502C79.0501 15.7506 78.9317 15.7223 78.825 15.6677L75 13.6652L71.175 15.6677C71.0508 15.733 70.9108 15.7621 70.7708 15.7518C70.6309 15.7415 70.4966 15.6921 70.3833 15.6093C70.27 15.5265 70.1823 15.4135 70.13 15.2833C70.0777 15.1531 70.063 15.0108 70.0875 14.8727L70.8375 10.6502L67.7475 7.65015C67.6511 7.55395 67.5827 7.4333 67.5497 7.30117C67.5166 7.16904 67.5202 7.03041 67.56 6.90015C67.6035 6.76686 67.6834 6.64842 67.7908 6.55827C67.8982 6.46812 68.0287 6.40988 68.1675 6.39015L72.4425 5.76765L74.325 1.92015C74.3864 1.79335 74.4823 1.68641 74.6017 1.61158C74.7211 1.53676 74.8591 1.49707 75 1.49707C75.1409 1.49707 75.2789 1.53676 75.3983 1.61158C75.5177 1.68641 75.6136 1.79335 75.675 1.92015L77.58 5.76015L81.855 6.38265C81.9938 6.40238 82.1243 6.46063 82.2317 6.55077C82.3391 6.64092 82.419 6.75936 82.4625 6.89265C82.5023 7.02291 82.5059 7.16154 82.4728 7.29367C82.4398 7.4258 82.3714 7.54645 82.275 7.64265L79.185 10.6427L79.935 14.8652C79.9618 15.0058 79.9478 15.1511 79.8946 15.284C79.8414 15.4169 79.7514 15.5318 79.635 15.6152C79.4992 15.7103 79.3357 15.7578 79.17 15.7502Z" fill="#B61F2E"/>
</g>
<g clip-path="url(#clip4_6_1769)">
<path d="M101.17 15.7502C101.05 15.7506 100.932 15.7223 100.825 15.6677L97 13.6652L93.175 15.6677C93.0508 15.733 92.9108 15.7621 92.7708 15.7518C92.6309 15.7415 92.4966 15.6921 92.3833 15.6093C92.27 15.5265 92.1823 15.4135 92.13 15.2833C92.0777 15.1531 92.063 15.0108 92.0875 14.8727L92.8375 10.6502L89.7475 7.65015C89.6511 7.55395 89.5827 7.4333 89.5497 7.30117C89.5166 7.16904 89.5202 7.03041 89.56 6.90015C89.6035 6.76686 89.6834 6.64842 89.7908 6.55827C89.8982 6.46812 90.0287 6.40988 90.1675 6.39015L94.4425 5.76765L96.325 1.92015C96.3864 1.79335 96.4823 1.68641 96.6017 1.61158C96.7211 1.53676 96.8591 1.49707 97 1.49707C97.1409 1.49707 97.2789 1.53676 97.3983 1.61158C97.5177 1.68641 97.6136 1.79335 97.675 1.92015L99.58 5.76015L103.855 6.38265C103.994 6.40238 104.124 6.46063 104.232 6.55077C104.339 6.64092 104.419 6.75936 104.463 6.89265C104.502 7.02291 104.506 7.16154 104.473 7.29367C104.44 7.4258 104.371 7.54645 104.275 7.64265L101.185 10.6427L101.935 14.8652C101.962 15.0058 101.948 15.1511 101.895 15.284C101.841 15.4169 101.751 15.5318 101.635 15.6152C101.499 15.7103 101.336 15.7578 101.17 15.7502Z" fill="#B61F2E"/>
</g>
<defs>
<clipPath id="clip0_6_1769">
<rect width="18" height="18" fill="white"/>
</clipPath>
<clipPath id="clip1_6_1769">
<rect width="18" height="18" fill="white" transform="translate(22)"/>
</clipPath>
<clipPath id="clip2_6_1769">
<rect width="18" height="18" fill="white" transform="translate(44)"/>
</clipPath>
<clipPath id="clip3_6_1769">
<rect width="18" height="18" fill="white" transform="translate(66)"/>
</clipPath>
<clipPath id="clip4_6_1769">
<rect width="18" height="18" fill="white" transform="translate(88)"/>
</clipPath>
</defs>
</svg>
