<svg width="68" height="68" viewBox="0 0 68 68" fill="none" xmlns="http://www.w3.org/2000/svg">
<path d="M58.7273 0H9.27273C4.15154 0 0 4.15154 0 9.27273V58.7273C0 63.8485 4.15154 68 9.27273 68H58.7273C63.8485 68 68 63.8485 68 58.7273V9.27273C68 4.15154 63.8485 0 58.7273 0Z" fill="#29A71A"/>
<path d="M48.9433 19.0093C45.4059 15.4366 40.7082 13.2456 35.6976 12.8314C30.687 12.4173 25.6934 13.8073 21.6174 16.7508C17.5414 19.6942 14.6514 23.9974 13.4687 28.884C12.286 33.7705 12.8885 38.9189 15.1674 43.4004L12.9303 54.2611C12.9071 54.3692 12.9065 54.481 12.9284 54.5893C12.9503 54.6977 12.9944 54.8004 13.0578 54.8909C13.1508 55.0283 13.2834 55.1341 13.438 55.1942C13.5927 55.2543 13.762 55.2657 13.9233 55.227L24.5676 52.7041C29.0365 54.9253 34.1486 55.489 38.9941 54.2949C43.8396 53.1008 48.1044 50.2263 51.0295 46.1829C53.9546 42.1395 55.3503 37.1895 54.9683 32.2136C54.5863 27.2378 52.4513 22.5588 48.9433 19.0093ZM45.6244 45.4984C43.1769 47.9391 40.0252 49.5502 36.6135 50.1047C33.2018 50.6592 29.7021 50.1292 26.6076 48.5893L25.124 47.8552L18.5983 49.4007L18.6176 49.3195L19.9699 42.7514L19.2435 41.318C17.6624 38.2126 17.1046 34.6866 17.6501 31.2448C18.1956 27.8031 19.8164 24.6223 22.2803 22.1582C25.3763 19.0632 29.5747 17.3245 33.9524 17.3245C38.33 17.3245 42.5285 19.0632 45.6244 22.1582C45.6508 22.1884 45.6792 22.2168 45.7094 22.2432C48.767 25.3461 50.4739 29.5321 50.458 33.8883C50.442 38.2446 48.7046 42.4179 45.6244 45.4984Z" fill="white"/>
<path d="M45.0449 40.6808C44.2451 41.9404 42.9817 43.4819 41.3938 43.8644C38.6119 44.5367 34.3426 43.8876 29.0301 38.9344L28.9644 38.8765C24.2933 34.5454 23.0801 30.9406 23.3738 28.0815C23.536 26.4588 24.8883 24.9906 26.0281 24.0324C26.2083 23.8786 26.4219 23.7691 26.652 23.7127C26.8821 23.6562 27.1222 23.6544 27.3531 23.7073C27.584 23.7603 27.7993 23.8665 27.9819 24.0176C28.1644 24.1686 28.309 24.3602 28.4042 24.5772L30.1235 28.4408C30.2352 28.6913 30.2767 28.9675 30.2433 29.2398C30.21 29.5121 30.1031 29.7701 29.9342 29.9863L29.0649 31.1144C28.8784 31.3474 28.7658 31.6308 28.7417 31.9283C28.7176 32.2257 28.7831 32.5236 28.9297 32.7835C29.4165 33.6374 30.5833 34.8931 31.8776 36.056C33.3303 37.3697 34.9415 38.5713 35.9615 38.9808C36.2344 39.0923 36.5345 39.1195 36.823 39.0589C37.1116 38.9983 37.3753 38.8527 37.5803 38.6408L38.5888 37.6247C38.7833 37.4328 39.0253 37.296 39.29 37.2281C39.5547 37.1602 39.8327 37.1637 40.0956 37.2383L44.1794 38.3974C44.4047 38.4665 44.6112 38.5862 44.7831 38.7474C44.955 38.9085 45.0878 39.1068 45.1713 39.3272C45.2549 39.5475 45.2869 39.784 45.265 40.0186C45.243 40.2533 45.1678 40.4798 45.0449 40.6808Z" fill="white"/>
</svg>
