<svg width="80" height="80" viewBox="0 0 80 80" fill="none" xmlns="http://www.w3.org/2000/svg">
<g clip-path="url(#clip0_185_7561)">
<path d="M34.6666 18.6667H37.3333C37.6869 18.6667 38.0261 18.5262 38.2761 18.2761C38.5262 18.0261 38.6666 17.687 38.6666 17.3333C38.6666 16.9797 38.5262 16.6406 38.2761 16.3905C38.0261 16.1405 37.6869 16 37.3333 16H34.6666C34.313 16 33.9739 16.1405 33.7238 16.3905C33.4738 16.6406 33.3333 16.9797 33.3333 17.3333C33.3333 17.687 33.4738 18.0261 33.7238 18.2761C33.9739 18.5262 34.313 18.6667 34.6666 18.6667Z" fill="#B61F2E"/>
<path d="M60 16H42.6666C42.313 16 41.9739 16.1405 41.7238 16.3905C41.4738 16.6406 41.3333 16.9797 41.3333 17.3333C41.3333 17.687 41.4738 18.0261 41.7238 18.2761C41.9739 18.5262 42.313 18.6667 42.6666 18.6667H60C60.3536 18.6667 60.6927 18.5262 60.9428 18.2761C61.1928 18.0261 61.3333 17.687 61.3333 17.3333C61.3333 16.9797 61.1928 16.6406 60.9428 16.3905C60.6927 16.1405 60.3536 16 60 16Z" fill="#B61F2E"/>
<path d="M60 22.6665H34.6666C34.313 22.6665 33.9739 22.807 33.7238 23.057C33.4738 23.3071 33.3333 23.6462 33.3333 23.9998C33.3333 24.3535 33.4738 24.6926 33.7238 24.9426C33.9739 25.1927 34.313 25.3332 34.6666 25.3332H60C60.3536 25.3332 60.6927 25.1927 60.9428 24.9426C61.1928 24.6926 61.3333 24.3535 61.3333 23.9998C61.3333 23.6462 61.1928 23.3071 60.9428 23.057C60.6927 22.807 60.3536 22.6665 60 22.6665Z" fill="#B61F2E"/>
<path d="M56 29.3335H34.6666C34.313 29.3335 33.9739 29.474 33.7238 29.724C33.4738 29.9741 33.3333 30.3132 33.3333 30.6668C33.3333 31.0205 33.4738 31.3596 33.7238 31.6096C33.9739 31.8597 34.313 32.0002 34.6666 32.0002H56C56.3536 32.0002 56.6927 31.8597 56.9428 31.6096C57.1928 31.3596 57.3333 31.0205 57.3333 30.6668C57.3333 30.3132 57.1928 29.9741 56.9428 29.724C56.6927 29.474 56.3536 29.3335 56 29.3335Z" fill="#B61F2E"/>
<path d="M26.6666 62.6667H29.3333C29.6869 62.6667 30.0261 62.5262 30.2761 62.2761C30.5262 62.0261 30.6666 61.687 30.6666 61.3333C30.6666 60.9797 30.5262 60.6406 30.2761 60.3905C30.0261 60.1405 29.6869 60 29.3333 60H26.6666C26.313 60 25.9739 60.1405 25.7238 60.3905C25.4738 60.6406 25.3333 60.9797 25.3333 61.3333C25.3333 61.687 25.4738 62.0261 25.7238 62.2761C25.9739 62.5262 26.313 62.6667 26.6666 62.6667Z" fill="#B61F2E"/>
<path d="M21.3333 60H18.6666C18.313 60 17.9739 60.1405 17.7238 60.3905C17.4738 60.6406 17.3333 60.9797 17.3333 61.3333C17.3333 61.687 17.4738 62.0261 17.7238 62.2761C17.9739 62.5262 18.313 62.6667 18.6666 62.6667H21.3333C21.6869 62.6667 22.0261 62.5262 22.2761 62.2761C22.5262 62.0261 22.6666 61.687 22.6666 61.3333C22.6666 60.9797 22.5262 60.6406 22.2761 60.3905C22.0261 60.1405 21.6869 60 21.3333 60Z" fill="#B61F2E"/>
<path d="M34.6666 62.6667H37.3333C37.6869 62.6667 38.0261 62.5262 38.2761 62.2761C38.5262 62.0261 38.6666 61.687 38.6666 61.3333C38.6666 60.9797 38.5262 60.6406 38.2761 60.3905C38.0261 60.1405 37.6869 60 37.3333 60H34.6666C34.313 60 33.9739 60.1405 33.7238 60.3905C33.4738 60.6406 33.3333 60.9797 33.3333 61.3333C33.3333 61.687 33.4738 62.0261 33.7238 62.2761C33.9739 62.5262 34.313 62.6667 34.6666 62.6667Z" fill="#B61F2E"/>
<path d="M42.6666 62.6667H45.3333C45.6869 62.6667 46.0261 62.5262 46.2761 62.2761C46.5262 62.0261 46.6666 61.687 46.6666 61.3333C46.6666 60.9797 46.5262 60.6406 46.2761 60.3905C46.0261 60.1405 45.6869 60 45.3333 60H42.6666C42.313 60 41.9739 60.1405 41.7238 60.3905C41.4738 60.6406 41.3333 60.9797 41.3333 61.3333C41.3333 61.687 41.4738 62.0261 41.7238 62.2761C41.9739 62.5262 42.313 62.6667 42.6666 62.6667Z" fill="#B61F2E"/>
<path d="M50.6666 62.6667H53.3333C53.6869 62.6667 54.0261 62.5262 54.2761 62.2761C54.5262 62.0261 54.6666 61.687 54.6666 61.3333C54.6666 60.9797 54.5262 60.6406 54.2761 60.3905C54.0261 60.1405 53.6869 60 53.3333 60H50.6666C50.313 60 49.9739 60.1405 49.7238 60.3905C49.4738 60.6406 49.3333 60.9797 49.3333 61.3333C49.3333 61.687 49.4738 62.0261 49.7238 62.2761C49.9739 62.5262 50.313 62.6667 50.6666 62.6667Z" fill="#B61F2E"/>
<path d="M58.6666 62.6667H61.3333C61.6869 62.6667 62.0261 62.5262 62.2761 62.2761C62.5262 62.0261 62.6666 61.687 62.6666 61.3333C62.6666 60.9797 62.5262 60.6406 62.2761 60.3905C62.0261 60.1405 61.6869 60 61.3333 60H58.6666C58.313 60 57.9739 60.1405 57.7238 60.3905C57.4738 60.6406 57.3333 60.9797 57.3333 61.3333C57.3333 61.687 57.4738 62.0261 57.7238 62.2761C57.9739 62.5262 58.313 62.6667 58.6666 62.6667Z" fill="#B61F2E"/>
<path d="M73.3334 8H69.3334V6.66667C69.3312 4.89921 68.6282 3.20474 67.3784 1.95496C66.1286 0.705176 64.4342 0.00211714 62.6667 0L6.66669 0C4.87048 0.0374912 3.16187 0.783332 1.91314 2.07502C0.664413 3.3667 -0.0232357 5.09955 2.20072e-05 6.896V12C2.20072e-05 12.7072 0.280974 13.3855 0.781071 13.8856C1.28117 14.3857 1.95944 14.6667 2.66669 14.6667H10.6667V73.3333C10.6624 74.21 10.832 75.0788 11.1655 75.8896C11.4991 76.7003 11.99 77.4369 12.6099 78.0568C13.2298 78.6767 13.9664 79.1676 14.7771 79.5012C15.5879 79.8347 16.4567 80.0042 17.3334 80H73.3334C75.1008 79.9979 76.7953 79.2948 78.0451 78.045C79.2948 76.7953 79.9979 75.1008 80 73.3333V66.6667C80 66.313 79.8596 65.9739 79.6095 65.7239C79.3595 65.4738 79.0203 65.3333 78.6667 65.3333H69.3334V45.3333H73.3334C75.1008 45.3312 76.7953 44.6282 78.0451 43.3784C79.2948 42.1286 79.9979 40.4341 80 38.6667V14.6667C79.9979 12.8992 79.2948 11.2047 78.0451 9.95496C76.7953 8.70518 75.1008 8.00212 73.3334 8ZM10.6667 12H2.66669V6.896C2.63834 5.80529 3.04337 4.7478 3.79309 3.9551C4.5428 3.1624 5.5761 2.6991 6.66669 2.66667C7.66159 2.66299 8.62134 3.03433 9.35469 3.70667C9.76715 4.08172 10.0969 4.53867 10.3228 5.04834C10.5487 5.558 10.6658 6.10918 10.6667 6.66667V12ZM21.3334 66.6667V73.3333C21.3334 74.3942 20.9119 75.4116 20.1618 76.1618C19.4116 76.9119 18.3942 77.3333 17.3334 77.3333C16.2725 77.3333 15.2551 76.9119 14.5049 76.1618C13.7548 75.4116 13.3334 74.3942 13.3334 73.3333V6.66667C13.3284 5.22222 12.8544 3.81847 11.9827 2.66667H62.6667C63.7276 2.66667 64.745 3.08809 65.4951 3.83824C66.2453 4.58839 66.6667 5.6058 66.6667 6.66667V8H32C30.2326 8.00212 28.5381 8.70518 27.2883 9.95496C26.0385 11.2047 25.3355 12.8992 25.3334 14.6667V38.6667C25.3355 40.4341 26.0385 42.1286 27.2883 43.3784C28.5381 44.6282 30.2326 45.3312 32 45.3333H33.7974C34.0037 45.3334 34.2072 45.3814 34.3919 45.4735C34.5766 45.5656 34.7373 45.6993 34.8615 45.8641C34.9857 46.0289 35.07 46.2203 35.1077 46.4232C35.1454 46.6261 35.1354 46.8349 35.0787 47.0333L34.2507 49.9307C34.1049 50.4359 34.1118 50.9729 34.2704 51.4742C34.429 51.9755 34.7323 52.4188 35.1421 52.7482C35.5519 53.0777 36.0499 53.2786 36.5736 53.3258C37.0973 53.3729 37.6233 53.2642 38.0854 53.0133L52.0387 45.4933C52.234 45.3889 52.4519 45.334 52.6734 45.3333H66.6667V65.3333H22.6667C22.3131 65.3333 21.9739 65.4738 21.7239 65.7239C21.4738 65.9739 21.3334 66.313 21.3334 66.6667ZM77.3334 68V73.3333C77.3334 74.3942 76.9119 75.4116 76.1618 76.1618C75.4116 76.9119 74.3942 77.3333 73.3334 77.3333H22.6667C23.5345 76.1806 24.0026 74.7762 24 73.3333V68H77.3334ZM77.3334 38.6667C77.3334 39.7275 76.9119 40.7449 76.1618 41.4951C75.4116 42.2452 74.3942 42.6667 73.3334 42.6667H52.6734C52.0107 42.6673 51.3585 42.8317 50.7747 43.1453L36.816 50.66L37.6427 47.7667C37.813 47.1714 37.8427 46.5446 37.7296 45.9359C37.6165 45.3271 37.3636 44.7529 36.9908 44.2585C36.618 43.7641 36.1356 43.363 35.5814 43.0868C35.0273 42.8106 34.4165 42.6667 33.7974 42.6667H32C30.9392 42.6667 29.9217 42.2452 29.1716 41.4951C28.4214 40.7449 28 39.7275 28 38.6667V14.6667C28 13.6058 28.4214 12.5884 29.1716 11.8382C29.9217 11.0881 30.9392 10.6667 32 10.6667H73.3334C74.3942 10.6667 75.4116 11.0881 76.1618 11.8382C76.9119 12.5884 77.3334 13.6058 77.3334 14.6667V38.6667Z" fill="#B61F2E"/>
</g>
<defs>
<clipPath id="clip0_185_7561">
<rect width="80" height="80" fill="white"/>
</clipPath>
</defs>
</svg>
