<svg width="14" height="14" viewBox="0 0 14 14" fill="none" xmlns="http://www.w3.org/2000/svg">
<path d="M7.00001 14C7.19864 14.0012 7.39311 13.9432 7.55863 13.8334C7.72415 13.7236 7.85322 13.567 7.92938 13.3835C8.00555 13.2001 8.02536 12.9981 7.98629 12.8033C7.94722 12.6086 7.85104 12.4299 7.71001 12.29L2.41001 7.00003L7.71001 1.71003C7.87384 1.51873 7.95945 1.27265 7.94972 1.02097C7.94 0.769298 7.83567 0.530558 7.65758 0.352464C7.47948 0.174369 7.24074 0.0700372 6.98907 0.0603161C6.73739 0.0505949 6.49131 0.136201 6.30001 0.300027L0.300012 6.30003C0.113761 6.48739 0.00921965 6.74084 0.00921965 7.00503C0.00921965 7.26921 0.113761 7.52267 0.300012 7.71003L6.30001 13.71C6.48627 13.8948 6.73767 13.9989 7.00001 14Z" fill="#3E3E3E"/>
<path d="M13 14.0002C13.1986 14.0013 13.3931 13.9433 13.5586 13.8335C13.7241 13.7237 13.8532 13.5671 13.9294 13.3837C14.0056 13.2002 14.0254 12.9983 13.9863 12.8035C13.9472 12.6088 13.851 12.4301 13.71 12.2902L8.41001 7.00019L13.71 1.71019C13.8983 1.52188 14.0041 1.26649 14.0041 1.00019C14.0041 0.733884 13.8983 0.478489 13.71 0.290185C13.5217 0.101882 13.2663 -0.00390625 13 -0.00390625C12.7337 -0.00390625 12.4783 0.101882 12.29 0.290185L6.29001 6.29019C6.10376 6.47755 5.99922 6.731 5.99922 6.99519C5.99922 7.25937 6.10376 7.51282 6.29001 7.70019L12.29 13.7002C12.3826 13.7947 12.4931 13.8698 12.6149 13.9213C12.7368 13.9728 12.8677 13.9996 13 14.0002Z" fill="#3E3E3E"/>
</svg>
