<svg width="80" height="80" viewBox="0 0 80 80" fill="none" xmlns="http://www.w3.org/2000/svg">
<path d="M30.625 33.75C31.4874 33.75 32.1875 33.0499 32.1875 32.1875C32.1875 31.3208 31.4801 30.625 30.625 30.625C29.7626 30.625 29.0625 31.3251 29.0625 32.1875C29.0625 33.0505 29.7626 33.75 30.625 33.75Z" fill="#B61F2E"/>
<path d="M40 13.4375C40.863 13.4375 41.5625 12.738 41.5625 11.875V1.5625C41.5625 0.699463 40.863 0 40 0C39.137 0 38.4375 0.699463 38.4375 1.5625V11.875C38.4375 12.738 39.137 13.4375 40 13.4375Z" fill="#B61F2E"/>
<path d="M38.4375 68.125V78.4375C38.4375 79.3005 39.137 80 40 80C40.863 80 41.5625 79.3005 41.5625 78.4375V68.125C41.5625 67.262 40.863 66.5625 40 66.5625C39.137 66.5625 38.4375 67.262 38.4375 68.125Z" fill="#B61F2E"/>
<path d="M15.8826 21.2168C16.4929 21.8271 17.4817 21.8271 18.0927 21.2168C18.7024 20.6071 18.7024 19.6177 18.0927 19.0073L11.4624 12.3777C10.8527 11.7673 9.86328 11.7673 9.25293 12.3777C8.64258 12.988 8.64258 13.9774 9.25293 14.5872L15.8826 21.2168Z" fill="#B61F2E"/>
<path d="M61.908 60.345C61.2976 60.9554 61.2976 61.9447 61.908 62.5551L68.5376 69.1847C69.1473 69.7945 70.1367 69.7951 70.7471 69.1847C71.3574 68.5744 71.3574 67.585 70.7471 66.9746L64.1174 60.345C63.5071 59.7353 62.5183 59.7353 61.908 60.345Z" fill="#B61F2E"/>
<path d="M64.1174 21.2168L70.7471 14.5872C71.3574 13.9774 71.3574 12.988 70.7471 12.3777C70.1367 11.7673 69.1479 11.7673 68.5376 12.3777L61.908 19.0073C61.2976 19.6177 61.2976 20.6071 61.908 21.2168C62.5183 21.8271 63.5071 21.8271 64.1174 21.2168Z" fill="#B61F2E"/>
<path d="M15.8826 60.3455L9.25293 66.9751C8.64258 67.5848 8.64258 68.5742 9.25293 69.1846C9.86328 69.7949 10.8521 69.7949 11.4624 69.1846L18.0927 62.5549C18.7024 61.9446 18.7024 60.9552 18.0927 60.3455C17.4823 59.7351 16.4929 59.7351 15.8826 60.3455Z" fill="#B61F2E"/>
<path d="M14.0369 51.3495C22.1796 58.2355 31.1578 61.875 40 61.875C48.8428 61.875 57.8204 58.2355 65.9631 51.3495C72.0642 46.1902 75.5273 41.087 75.6714 40.8722C76.026 40.3448 76.026 39.6552 75.6714 39.1278C75.5273 38.9136 72.0642 33.8098 65.9631 28.6505C57.8204 21.7645 48.8428 18.125 40 18.125C31.1578 18.125 22.1796 21.7645 14.0369 28.6505C7.9364 33.8098 4.47327 38.913 4.32861 39.1278C3.974 39.6552 3.974 40.3448 4.32861 40.8722C4.47327 41.087 7.9364 46.1902 14.0369 51.3495ZM16.0547 31.037C21.3342 26.5723 29.7742 21.25 40 21.25C50.1947 21.25 58.6127 26.5417 63.8794 30.9808C68.2294 34.6478 71.2164 38.36 72.4481 40.0012C71.2262 41.6309 68.2721 45.304 63.9453 48.963C58.6658 53.4277 50.2258 58.75 40 58.75C29.8053 58.75 21.3873 53.4583 16.1212 49.0192C11.7706 45.3522 8.78296 41.6394 7.55249 39.9994C8.7738 38.3691 11.7279 34.696 16.0547 31.037Z" fill="#B61F2E"/>
<path d="M40 54.0625C47.8021 54.0625 54.0625 47.7301 54.0625 40C54.0625 32.2461 47.7539 25.9375 40 25.9375C38.3582 25.9375 36.5759 26.2384 34.967 26.8652C34.1626 27.1777 33.764 28.0835 34.0765 28.8879C34.3707 29.6448 35.1923 30.1257 36.2506 29.7223C37.4408 29.2767 38.7738 29.0625 40 29.0625C46.0309 29.0625 50.9375 33.9691 50.9375 40C50.9375 46.0132 46.062 50.9375 40 50.9375C33.9691 50.9375 29.0625 46.0309 29.0625 40C29.0625 39.2706 29.1272 38.7097 29.2432 38.0054C29.4037 37.1576 28.8464 36.3452 27.9987 36.1835C27.1533 36.0236 26.333 36.5833 26.1713 37.4304C26.0114 38.2788 25.9375 39.1748 25.9375 40C25.9375 47.7539 32.2461 54.0625 40 54.0625Z" fill="#B61F2E"/>
<path d="M46.25 40C46.25 36.554 43.446 33.75 40 33.75C36.554 33.75 33.75 36.554 33.75 40C33.75 43.446 36.554 46.25 40 46.25C43.446 46.25 46.25 43.446 46.25 40ZM36.875 40C36.875 38.277 38.277 36.875 40 36.875C41.723 36.875 43.125 38.277 43.125 40C43.125 41.723 41.723 43.125 40 43.125C38.277 43.125 36.875 41.723 36.875 40Z" fill="#B61F2E"/>
</svg>
