<svg width="18" height="14" viewBox="0 0 18 14" fill="none" xmlns="http://www.w3.org/2000/svg">
<path fill-rule="evenodd" clip-rule="evenodd" d="M18 1C18 0.44772 17.5523 0 17 0H1C0.447701 0 0 0.44772 0 1C0 1.55228 0.447701 2 1 2H17C17.5523 2 18 1.55228 18 1ZM18 7C18 6.4477 17.5523 6 17 6H7C6.4477 6 6 6.4477 6 7C6 7.5523 6.4477 8 7 8H17C17.5523 8 18 7.5523 18 7ZM18 13C18 12.4477 17.5523 12 17 12H12C11.4477 12 11 12.4477 11 13C11 13.5523 11.4477 14 12 14H17C17.5523 14 18 13.5523 18 13Z" fill="#2C2220"/>
</svg>
