<svg width="42" height="42" viewBox="0 0 42 42" fill="none" xmlns="http://www.w3.org/2000/svg">
<path d="M36.2727 0H5.72727C2.56419 0 0 2.56419 0 5.72727V36.2727C0 39.4358 2.56419 42 5.72727 42H36.2727C39.4358 42 42 39.4358 42 36.2727V5.72727C42 2.56419 39.4358 0 36.2727 0Z" fill="#29A71A"/>
<path d="M30.2591 11.7409C28.0743 9.5342 25.1728 8.18092 22.078 7.92513C18.9832 7.66934 15.8989 8.52789 13.3814 10.3459C10.8638 12.1639 9.07885 14.8217 8.34836 17.8399C7.61787 20.8581 7.98997 24.038 9.39754 26.806L8.01584 33.5141C8.0015 33.5808 8.00109 33.6498 8.01464 33.7168C8.02819 33.7837 8.05541 33.8471 8.09459 33.903C8.15198 33.9879 8.2339 34.0533 8.32942 34.0904C8.42493 34.1275 8.52949 34.1345 8.62913 34.1106L15.2036 32.5524C17.9638 33.9243 21.1212 34.2725 24.114 33.5349C27.1069 32.7974 29.741 31.0219 31.5477 28.5246C33.3543 26.0272 34.2164 22.9698 33.9804 19.8965C33.7445 16.8232 32.4258 13.9332 30.2591 11.7409ZM28.2092 28.1018C26.6975 29.6092 24.7509 30.6043 22.6437 30.9468C20.5365 31.2893 18.3749 30.962 16.4636 30.0109L15.5472 29.5575L11.5166 30.512L11.5286 30.4619L12.3638 26.4051L11.9152 25.5197C10.9386 23.6018 10.5941 21.4239 10.931 19.2981C11.2679 17.1723 12.269 15.2077 13.7908 13.6858C15.703 11.7741 18.2962 10.7003 21 10.7003C23.7039 10.7003 26.297 11.7741 28.2092 13.6858C28.2255 13.7044 28.2431 13.722 28.2617 13.7383C30.1502 15.6548 31.2045 18.2402 31.1947 20.9308C31.1848 23.6215 30.1117 26.1991 28.2092 28.1018Z" fill="white"/>
<path d="M27.8513 25.1265C27.3573 25.9044 26.577 26.8566 25.5962 27.0928C23.878 27.5081 21.241 27.1072 17.9598 24.0478L17.9192 24.012C15.0341 21.3369 14.2848 19.1104 14.4662 17.3445C14.5664 16.3423 15.4016 15.4354 16.1056 14.8436C16.2169 14.7486 16.3489 14.681 16.491 14.6461C16.6331 14.6113 16.7814 14.6102 16.924 14.6429C17.0666 14.6756 17.1996 14.7412 17.3123 14.8345C17.4251 14.9277 17.5144 15.0461 17.5732 15.1801L18.6351 17.5665C18.7041 17.7212 18.7297 17.8918 18.7091 18.06C18.6885 18.2281 18.6225 18.3875 18.5182 18.521L17.9813 19.2178C17.8661 19.3617 17.7965 19.5368 17.7817 19.7205C17.7668 19.9042 17.8072 20.0882 17.8978 20.2487C18.1984 20.7761 18.9191 21.5517 19.7185 22.27C20.6158 23.0814 21.6109 23.8235 22.2409 24.0765C22.4095 24.1453 22.5948 24.1621 22.7731 24.1247C22.9513 24.0873 23.1142 23.9973 23.2408 23.8665L23.8637 23.2389C23.9838 23.1203 24.1333 23.0358 24.2968 22.9939C24.4603 22.952 24.632 22.9542 24.7943 23.0002L27.3167 23.7161C27.4559 23.7588 27.5834 23.8327 27.6896 23.9323C27.7958 24.0318 27.8778 24.1543 27.9294 24.2904C27.981 24.4265 28.0007 24.5726 27.9872 24.7175C27.9737 24.8624 27.9272 25.0023 27.8513 25.1265Z" fill="white"/>
</svg>
