<svg width="32" height="32" viewBox="0 0 32 32" fill="none" xmlns="http://www.w3.org/2000/svg">
<circle cx="15.9616" cy="15.9615" r="15.9615" fill="#B61F2E"/>
<path d="M16.6284 24.9182C14.372 24.9182 14.106 24.9063 13.2255 24.8677C12.5388 24.8452 11.8611 24.7056 11.2214 24.455C10.6739 24.2419 10.1768 23.9174 9.76151 23.502C9.34622 23.0865 9.02187 22.5893 8.80904 22.0417C8.56809 21.3997 8.43812 20.7214 8.42472 20.0358C8.37335 19.1571 8.37335 18.869 8.37335 16.6301C8.37335 14.3673 8.38528 14.1031 8.42472 13.2272C8.43842 12.5425 8.56837 11.8651 8.80904 11.2239C9.02162 10.6757 9.3462 10.1779 9.76203 9.76221C10.1779 9.34653 10.6758 9.02214 11.2241 8.80977C11.8649 8.5678 12.5425 8.4375 13.2273 8.42453C14.1033 8.375 14.3913 8.375 16.6284 8.375C18.9032 8.375 19.1646 8.38692 20.0314 8.42453C20.7175 8.43737 21.398 8.56762 22.0401 8.80977C22.5882 9.02239 23.0861 9.34686 23.5019 9.76251C23.9177 10.1782 24.2423 10.6759 24.4552 11.2239C24.7001 11.8752 24.8312 12.5631 24.8413 13.2574C24.8927 14.1361 24.8927 14.4232 24.8927 16.6613C24.8927 18.8993 24.8799 19.1928 24.8413 20.0614C24.8276 20.7477 24.6974 21.4267 24.4561 22.0693C24.2427 22.6172 23.9178 23.1147 23.5018 23.5303C23.0859 23.9459 22.5881 24.2705 22.0401 24.4834C21.398 24.7237 20.7202 24.854 20.035 24.8677C19.1591 24.9182 18.872 24.9182 16.6284 24.9182ZM16.5973 9.82698C14.3537 9.82698 14.1207 9.83798 13.2448 9.87743C12.7216 9.88427 12.2035 9.98075 11.713 10.1627C11.3552 10.2998 11.0301 10.5104 10.7587 10.7809C10.4873 11.0513 10.2756 11.3757 10.1372 11.733C9.95374 12.2283 9.85743 12.752 9.85193 13.2804C9.80332 14.1692 9.80332 14.4021 9.80332 16.6301C9.80332 18.8314 9.81157 19.0984 9.85193 19.9816C9.86018 20.5045 9.95649 21.0227 10.1372 21.5134C10.4179 22.2353 10.9902 22.8058 11.7139 23.0828C12.2038 23.2659 12.7218 23.3624 13.2448 23.3681C14.1326 23.4194 14.3665 23.4194 16.5973 23.4194C18.8472 23.4194 19.0802 23.4084 19.9488 23.3681C20.472 23.3617 20.9902 23.2652 21.4806 23.0828C21.8365 22.9446 22.1597 22.7339 22.4297 22.464C22.6997 22.1942 22.9107 21.8711 23.0491 21.5153C23.2325 21.02 23.3288 20.4953 23.3343 19.967H23.3444C23.3838 19.0901 23.3838 18.8562 23.3838 16.6154C23.3838 14.3746 23.3738 14.1389 23.3343 13.2629C23.326 12.7405 23.2296 12.2233 23.0491 11.733C22.911 11.3767 22.7002 11.053 22.4302 10.7827C22.1601 10.5123 21.8367 10.3012 21.4806 10.1627C20.9903 9.97986 20.472 9.88335 19.9488 9.87743C19.0619 9.82698 18.8298 9.82698 16.5973 9.82698ZM16.6284 20.8668C15.7897 20.8673 14.9696 20.6191 14.272 20.1535C13.5743 19.688 13.0304 19.026 12.709 18.2513C12.3876 17.4765 12.3032 16.6239 12.4664 15.8012C12.6296 14.9785 13.0332 14.2227 13.626 13.6293C14.2188 13.036 14.9743 12.6318 15.7969 12.4678C16.6194 12.3039 17.4721 12.3876 18.2471 12.7083C19.0221 13.029 19.6846 13.5724 20.1508 14.2696C20.6169 14.9669 20.8659 15.7868 20.866 16.6255C20.8646 17.7493 20.4178 18.8267 19.6235 19.6216C18.8292 20.4166 17.7522 20.8644 16.6284 20.8668ZM16.6284 13.872C16.0842 13.872 15.5522 14.0334 15.0997 14.3357C14.6472 14.6381 14.2945 15.0678 14.0862 15.5706C13.8779 16.0734 13.8234 16.6267 13.9296 17.1605C14.0358 17.6943 14.2979 18.1846 14.6827 18.5694C15.0675 18.9542 15.5578 19.2163 16.0916 19.3225C16.6254 19.4287 17.1787 19.3742 17.6815 19.1659C18.1843 18.9576 18.614 18.6049 18.9164 18.1524C19.2187 17.6999 19.3801 17.1679 19.3801 16.6237C19.3784 15.8944 19.088 15.1955 18.5723 14.6798C18.0566 14.1641 17.3577 13.8737 16.6284 13.872ZM21.0311 13.218C20.9013 13.2175 20.7728 13.1914 20.653 13.1413C20.5333 13.0912 20.4245 13.0179 20.3331 12.9258C20.1483 12.7397 20.0451 12.4878 20.046 12.2255C20.047 11.9633 20.1521 11.7122 20.3382 11.5274C20.5244 11.3427 20.7762 11.2395 21.0385 11.2404C21.3007 11.2414 21.5518 11.3465 21.7366 11.5326C21.9213 11.7188 22.0246 11.9706 22.0236 12.2329C22.0226 12.4951 21.9175 12.7462 21.7314 12.931C21.5453 13.1157 21.2934 13.219 21.0311 13.218Z" fill="white"/>
</svg>
