<svg width="32" height="33" viewBox="0 0 32 33" fill="none" xmlns="http://www.w3.org/2000/svg">
<circle cx="15.9616" cy="16.3619" r="15.9615" fill="#B61F2E"/>
<path fill-rule="evenodd" clip-rule="evenodd" d="M14.6771 12.7326H17.4626V14.1201C17.8639 13.3221 18.8929 12.6051 20.4386 12.6051C23.4019 12.6051 24.1054 14.1936 24.1054 17.1081V22.5059H21.1054V17.7719C21.1054 16.1121 20.7041 15.1761 19.6826 15.1761C18.2659 15.1761 17.6771 16.1849 17.6771 17.7711V22.5059H14.6771V12.7326ZM9.53288 22.3784H12.5329V12.6051H9.53288V22.3784ZM12.9626 9.41836C12.9627 9.66982 12.9129 9.91879 12.8159 10.1508C12.719 10.3828 12.5769 10.5932 12.3979 10.7699C12.0352 11.1303 11.5442 11.3321 11.0329 11.3309C10.5224 11.3305 10.0326 11.1293 9.66938 10.7706C9.49104 10.5934 9.34942 10.3827 9.25263 10.1507C9.15585 9.91864 9.10581 9.66978 9.10538 9.41836C9.10538 8.91061 9.30788 8.42461 9.67013 8.06611C10.033 7.70698 10.5231 7.50563 11.0336 7.50586C11.5451 7.50586 12.0356 7.70761 12.3979 8.06611C12.7594 8.42461 12.9626 8.91061 12.9626 9.41836Z" fill="white"/>
</svg>
