<svg width="32" height="32" viewBox="0 0 32 32" fill="none" xmlns="http://www.w3.org/2000/svg">
<circle cx="15.9616" cy="15.9615" r="15.9615" fill="#B61F2E"/>
<path d="M24.1239 10.9668C23.5262 11.2246 22.8758 11.4102 22.2059 11.4824C22.9014 11.0692 23.4223 10.4164 23.6708 9.64649C23.0181 10.0348 22.3031 10.307 21.5575 10.4512C21.2458 10.118 20.8689 9.85262 20.4503 9.67151C20.0316 9.49039 19.5801 9.39744 19.1239 9.39845C17.2782 9.39845 15.7938 10.8945 15.7938 12.7305C15.7938 12.9883 15.8251 13.2461 15.8758 13.4941C13.1122 13.3496 10.6473 12.0293 9.00865 10.0078C8.71007 10.5178 8.5536 11.0985 8.55553 11.6895C8.55553 12.8457 9.14342 13.8652 10.0399 14.4649C9.51159 14.444 8.99565 14.2988 8.53404 14.041V14.082C8.53404 15.7012 9.67857 17.043 11.204 17.3516C10.9176 17.426 10.6229 17.464 10.327 17.4649C10.1102 17.4649 9.90514 17.4434 9.6981 17.4141C10.12 18.7344 11.3485 19.6934 12.8114 19.7246C11.6669 20.6211 10.2333 21.1484 8.67662 21.1484C8.39732 21.1484 8.13951 21.1387 7.87193 21.1074C9.3485 22.0547 11.1004 22.6016 12.9872 22.6016C19.1122 22.6016 22.4637 17.5274 22.4637 13.1231C22.4637 12.9785 22.4637 12.834 22.454 12.6895C23.1024 12.2149 23.6708 11.627 24.1239 10.9668Z" fill="white"/>
</svg>
