<svg width="25" height="25" viewBox="0 0 25 25" fill="none" xmlns="http://www.w3.org/2000/svg">
<path d="M23.3904 17.7454L20.0412 14.3961C18.845 13.2 16.8115 13.6785 16.333 15.2335C15.9742 16.3101 14.778 16.9081 13.7015 16.6689C11.3091 16.0708 8.07948 12.9607 7.48139 10.4488C7.12254 9.37219 7.84024 8.17602 8.91679 7.81722C10.4718 7.33875 10.9503 5.30526 9.75411 4.1091L6.40484 0.759824C5.44791 -0.0774935 4.0125 -0.0774935 3.17519 0.759824L0.902466 3.03254C-1.37025 5.42488 1.1417 11.7646 6.76369 17.3866C12.3857 23.0086 18.7254 25.6402 21.1177 23.2478L23.3904 20.9751C24.2278 20.0181 24.2278 18.5827 23.3904 17.7454Z" fill="white"/>
</svg>
