<svg width="162" height="59" viewBox="0 0 162 59" fill="none" xmlns="http://www.w3.org/2000/svg">
<rect width="161.044" height="58" transform="translate(0 0.131836)" fill="#29A71A"/>
<path d="M36.4887 20.6618C34.4906 18.6438 31.8372 17.4062 29.007 17.1723C26.1768 16.9384 23.3561 17.7235 21.0539 19.3861C18.7516 21.0487 17.1192 23.4793 16.4512 26.2395C15.7831 28.9996 16.1234 31.9076 17.4106 34.439L16.1471 40.5736C16.1339 40.6346 16.1336 40.6977 16.146 40.7589C16.1584 40.8201 16.1832 40.8781 16.2191 40.9293C16.2716 41.0069 16.3465 41.0667 16.4338 41.1006C16.5212 41.1345 16.6168 41.141 16.7079 41.1191L22.7203 39.6941C25.2445 40.9487 28.132 41.2671 30.869 40.5926C33.6059 39.9181 36.0148 38.2945 37.6671 36.0106C39.3193 33.7268 40.1076 30.9308 39.8918 28.1202C39.6761 25.3096 38.4702 22.6668 36.4887 20.6618ZM34.6141 35.624C33.2316 37.0026 31.4514 37.9126 29.5243 38.2258C27.5972 38.539 25.6205 38.2397 23.8726 37.3699L23.0345 36.9552L19.3486 37.8282L19.3595 37.7823L20.1233 34.0723L19.713 33.2627C18.8199 31.5087 18.5048 29.517 18.813 27.573C19.1211 25.629 20.0366 23.8323 21.4283 22.4405C23.1771 20.6923 25.5485 19.7102 28.0212 19.7102C30.4939 19.7102 32.8653 20.6923 34.6141 22.4405C34.6289 22.4575 34.645 22.4736 34.6621 22.4885C36.3891 24.2412 37.3532 26.6055 37.3442 29.0661C37.3352 31.5267 36.3539 33.884 34.6141 35.624Z" fill="white"/>
<path d="M34.2867 32.9025C33.8349 33.6139 33.1213 34.4847 32.2243 34.7007C30.6531 35.0805 28.2416 34.7138 25.2408 31.9161L25.2037 31.8833C22.5653 29.4369 21.88 27.4008 22.0459 25.7859C22.1375 24.8693 22.9014 24.04 23.5452 23.4988C23.6469 23.4119 23.7676 23.35 23.8976 23.3182C24.0276 23.2863 24.1632 23.2852 24.2936 23.3151C24.424 23.345 24.5457 23.4051 24.6487 23.4904C24.7518 23.5757 24.8335 23.6839 24.8873 23.8065L25.8584 25.9888C25.9216 26.1303 25.9449 26.2863 25.9261 26.4401C25.9073 26.5939 25.8469 26.7397 25.7515 26.8617L25.2605 27.499C25.1551 27.6306 25.0915 27.7907 25.0779 27.9587C25.0643 28.1267 25.1013 28.2949 25.1841 28.4418C25.4591 28.9241 26.1181 29.6333 26.8492 30.2902C27.6698 31.0322 28.5798 31.7109 29.156 31.9422C29.3101 32.0052 29.4796 32.0206 29.6426 31.9864C29.8056 31.9521 29.9546 31.8699 30.0704 31.7502L30.64 31.1762C30.7499 31.0679 30.8865 30.9906 31.0361 30.9522C31.1856 30.9139 31.3426 30.9159 31.4911 30.958L33.7978 31.6127C33.9251 31.6517 34.0417 31.7194 34.1388 31.8104C34.2359 31.9014 34.3109 32.0134 34.3581 32.1379C34.4053 32.2623 34.4233 32.3959 34.411 32.5285C34.3986 32.661 34.3561 32.7889 34.2867 32.9025Z" fill="white"/>
<path d="M55.7794 32.4018V27.9378C55.3354 28.2138 54.8674 28.3518 54.3754 28.3518C53.9794 28.3518 53.6014 28.2618 53.2414 28.0818C52.1014 27.6138 51.5314 26.6358 51.5314 25.1478C51.5314 24.0438 51.8314 23.1918 52.4314 22.5918C52.9594 22.0518 53.6614 21.7818 54.5374 21.7818C55.4014 21.7818 56.0794 22.0458 56.5714 22.5738C57.0754 23.0898 57.3274 23.8098 57.3274 24.7338V31.5738L55.7794 32.4018ZM55.7794 24.6978C55.7794 23.6898 55.3534 23.1858 54.5014 23.1858C53.5174 23.1858 53.0254 23.8218 53.0254 25.0938C53.0254 25.6338 53.1574 26.0718 53.4214 26.4078C53.6854 26.7438 54.0334 26.9178 54.4654 26.9298C54.4774 26.9298 54.5014 26.9298 54.5374 26.9298C54.9934 26.9298 55.4074 26.7678 55.7794 26.4438V24.6978ZM60.8891 30.5298L59.2151 28.8558L60.8891 27.1998L62.5271 28.8558L60.8891 30.5298ZM65.6352 30.5298L63.9612 28.8558L65.6352 27.1998L67.2732 28.8558L65.6352 30.5298ZM70.3813 30.5298L68.7073 28.8558L70.3813 27.1998L72.0193 28.8558L70.3813 30.5298ZM77.3414 32.1318C76.2494 32.1318 75.3974 31.7658 74.7854 31.0338C74.2574 30.3978 73.9934 29.5878 73.9934 28.6038C73.9934 27.5358 74.2874 26.6118 74.8754 25.8318C75.4754 25.0398 76.3274 24.4578 77.4314 24.0858C78.5954 24.4818 79.4714 25.1058 80.0594 25.9578C80.5874 26.7138 80.8514 27.5958 80.8514 28.6038C80.8514 29.7438 80.5154 30.6378 79.8434 31.2858C79.2434 31.8498 78.4694 32.1318 77.5214 32.1318H77.3414ZM77.2874 30.6738H77.5574C78.0974 30.6738 78.5234 30.4878 78.8354 30.1158C79.1594 29.7438 79.3214 29.2458 79.3214 28.6218C79.3214 27.1818 78.6914 26.1498 77.4314 25.5258C76.1714 26.1498 75.5414 27.1758 75.5414 28.6038C75.5414 29.2398 75.6974 29.7438 76.0094 30.1158C76.3214 30.4878 76.7474 30.6738 77.2874 30.6738ZM86.9981 32.4018V27.9378C86.5541 28.2138 86.0861 28.3518 85.5941 28.3518C85.1981 28.3518 84.8201 28.2618 84.4601 28.0818C83.3201 27.6138 82.7501 26.6358 82.7501 25.1478C82.7501 24.0438 83.0501 23.1918 83.6501 22.5918C84.1781 22.0518 84.8801 21.7818 85.7561 21.7818C86.6201 21.7818 87.2981 22.0458 87.7901 22.5738C88.2941 23.0898 88.5461 23.8098 88.5461 24.7338V31.5738L86.9981 32.4018ZM86.9981 24.6978C86.9981 23.6898 86.5721 23.1858 85.7201 23.1858C84.7361 23.1858 84.2441 23.8218 84.2441 25.0938C84.2441 25.6338 84.3761 26.0718 84.6401 26.4078C84.9041 26.7438 85.2521 26.9178 85.6841 26.9298C85.6961 26.9298 85.7201 26.9298 85.7561 26.9298C86.2121 26.9298 86.6261 26.7678 86.9981 26.4438V24.6978ZM92.1079 30.5298L90.4339 28.8558L92.1079 27.1998L93.7459 28.8558L92.1079 30.5298ZM94.82 32.1318L97.844 21.9618H100.004L103.082 32.1318H101.462L98.96 23.7798H98.888L96.44 32.1318H94.82ZM113.234 21.9618V24.1758C113.234 24.8478 113.006 25.3938 112.55 25.8138C112.106 26.2338 111.524 26.4438 110.804 26.4438C110.072 26.4438 109.478 26.2458 109.022 25.8498C108.59 26.2458 108.02 26.4438 107.312 26.4438C106.892 26.4438 106.538 26.3838 106.25 26.2638V31.5738L104.702 32.4018V21.9618H106.25V24.1758C106.25 24.7878 106.598 25.0938 107.294 25.0938C107.966 25.0938 108.302 24.7878 108.302 24.1758V22.5018H109.742V24.1758C109.742 24.7878 110.09 25.0938 110.786 25.0938C111.458 25.0938 111.794 24.7878 111.794 24.1758V21.9618H113.234ZM116.172 30.5298L114.498 28.8558L116.172 27.1998L117.81 28.8558L116.172 30.5298ZM123.402 32.4018V27.9378C122.958 28.2138 122.49 28.3518 121.998 28.3518C121.602 28.3518 121.224 28.2618 120.864 28.0818C119.724 27.6138 119.154 26.6358 119.154 25.1478C119.154 24.0438 119.454 23.1918 120.054 22.5918C120.582 22.0518 121.284 21.7818 122.16 21.7818C123.024 21.7818 123.702 22.0458 124.194 22.5738C124.698 23.0898 124.95 23.8098 124.95 24.7338V31.5738L123.402 32.4018ZM123.402 24.6978C123.402 23.6898 122.976 23.1858 122.124 23.1858C121.14 23.1858 120.648 23.8218 120.648 25.0938C120.648 25.6338 120.78 26.0718 121.044 26.4078C121.308 26.7438 121.656 26.9178 122.088 26.9298C122.1 26.9298 122.124 26.9298 122.16 26.9298C122.616 26.9298 123.03 26.7678 123.402 26.4438V24.6978ZM128.512 30.5298L126.838 28.8558L128.512 27.1998L130.15 28.8558L128.512 30.5298ZM133.258 30.5298L131.584 28.8558L133.258 27.1998L134.896 28.8558L133.258 30.5298ZM139.552 28.6758H136.366V27.4158H139.552V23.9598H140.992V27.4158H144.178V28.6758H140.992V32.1318H139.552V28.6758Z" fill="#FAFAFA"/>
</svg>
