<svg width="24" height="24" viewBox="0 0 24 24" fill="none" xmlns="http://www.w3.org/2000/svg">
<path d="M20.3717 3.53001C18.3737 1.51199 15.7202 0.274407 12.89 0.0404876C10.0598 -0.193431 7.2392 0.591713 4.93692 2.2543C2.63463 3.91689 1.00225 6.34747 0.334208 9.10762C-0.333829 11.8678 0.00645748 14.7758 1.29369 17.3071L0.0301104 23.4417C0.0169994 23.5028 0.0166281 23.5659 0.0290198 23.6271C0.0414116 23.6883 0.0662995 23.7463 0.102127 23.7974C0.154613 23.8751 0.229532 23.9348 0.316881 23.9688C0.40423 24.0027 0.499851 24.0092 0.590973 23.9873L6.60333 22.5622C9.12757 23.8169 12.0151 24.1353 14.752 23.4608C17.489 22.7863 19.8979 21.1627 21.5501 18.8788C23.2023 16.5949 23.9907 13.7989 23.7749 10.9884C23.5591 8.17779 22.3532 5.53491 20.3717 3.53001ZM18.4971 18.4922C17.1146 19.8707 15.3344 20.7808 13.4074 21.094C11.4803 21.4072 9.50352 21.1078 7.75561 20.238L6.91759 19.8234L3.23161 20.6963L3.24252 20.6505L4.00634 16.9405L3.59606 16.1309C2.70296 14.3769 2.3879 12.3852 2.69603 10.4411C3.00416 8.49712 3.91966 6.70049 5.31138 5.30862C7.06011 3.56044 9.43156 2.57836 11.9042 2.57836C14.3769 2.57836 16.7484 3.56044 18.4971 5.30862C18.512 5.3257 18.528 5.34174 18.5451 5.35663C20.2722 7.10932 21.2363 9.47369 21.2273 11.9343C21.2183 14.3949 20.2369 16.7521 18.4971 18.4922Z" fill="white"/>
<path d="M18.1698 15.7711C17.718 16.4826 17.0044 17.3533 16.1075 17.5694C14.5362 17.9491 12.1247 17.5825 9.12396 14.7847L9.08686 14.752C6.44841 12.3056 5.76315 10.2694 5.92901 8.6545C6.02067 7.73792 6.78449 6.90863 7.42828 6.36741C7.53006 6.28054 7.65076 6.21869 7.78072 6.18681C7.91068 6.15493 8.04629 6.1539 8.17672 6.1838C8.30715 6.2137 8.42877 6.27371 8.53186 6.35902C8.63495 6.44433 8.71665 6.55258 8.77042 6.67512L9.74156 8.85746C9.80467 8.99896 9.82806 9.15498 9.80922 9.30877C9.79038 9.46255 9.73003 9.60831 9.63463 9.7304L9.1436 10.3676C9.03824 10.4992 8.97466 10.6593 8.96105 10.8273C8.94744 10.9953 8.98442 11.1636 9.06722 11.3104C9.3422 11.7927 10.0013 12.502 10.7323 13.1589C11.5529 13.9009 12.4629 14.5796 13.0391 14.8109C13.1932 14.8739 13.3627 14.8892 13.5257 14.855C13.6887 14.8208 13.8377 14.7385 13.9535 14.6188L14.5231 14.0449C14.633 13.9365 14.7697 13.8592 14.9192 13.8209C15.0687 13.7825 15.2257 13.7845 15.3742 13.8267L17.6809 14.4814C17.8082 14.5204 17.9248 14.588 18.0219 14.679C18.119 14.7701 18.194 14.8821 18.2412 15.0065C18.2884 15.131 18.3065 15.2646 18.2941 15.3971C18.2817 15.5296 18.2392 15.6576 18.1698 15.7711Z" fill="white"/>
</svg>
