<svg width="20" height="20" viewBox="0 0 20 20" fill="none" xmlns="http://www.w3.org/2000/svg">
<g clip-path="url(#clip0_319_99)">
<path d="M19.4141 1V13.8402C19.4141 13.9695 19.309 14.0746 19.1797 14.0746H14.2555V15.5254C14.2555 15.6547 14.1504 15.7598 14.0211 15.7598C13.8918 15.7598 13.7867 15.6547 13.7867 15.5254V13.8402C13.7867 13.832 13.7871 13.8238 13.7879 13.8156C13.7871 13.8074 13.7867 13.7992 13.7867 13.791V12.8492C13.7867 12.7199 13.8918 12.6148 14.0211 12.6148C14.1504 12.6148 14.2555 12.7199 14.2555 12.8492V13.6059H18.9453V10.3051H14.2555V11.0617C14.2555 11.191 14.1504 11.2961 14.0211 11.2961C13.8918 11.2961 13.7867 11.191 13.7867 11.0617V10.0707C13.7867 9.94141 13.8918 9.83633 14.0211 9.83633H18.9453V1.23438H13.2941V7.40977H15.0938C15.223 7.40977 15.3281 7.51484 15.3281 7.64414C15.3281 7.77344 15.223 7.87852 15.0938 7.87852H13.0742C13.0719 7.87852 13.0695 7.87813 13.0672 7.87813C13.0648 7.87813 13.0625 7.87852 13.0602 7.87852H11.0262C10.8969 7.87852 10.7918 7.77344 10.7918 7.64414C10.7918 7.51484 10.8969 7.40977 11.0262 7.40977H12.8258V1.23438H7.17461V7.40977H8.97422C9.10352 7.40977 9.20859 7.51484 9.20859 7.64414C9.20859 7.77344 9.10352 7.87852 8.97422 7.87852H6.95195C6.95 7.87852 6.94805 7.87813 6.94609 7.87813C6.94414 7.87813 6.94219 7.87852 6.94023 7.87852H4.90625C4.77695 7.87852 4.67188 7.77344 4.67188 7.64414C4.67188 7.51484 4.77695 7.40977 4.90625 7.40977H6.70586V1.23438H1.05469V7.40977H2.8543C2.98359 7.40977 3.08867 7.51484 3.08867 7.64414C3.08867 7.77344 2.98359 7.87852 2.8543 7.87852H1.05469V9.83633H4.76289C4.89219 9.83633 4.99727 9.94141 4.99727 10.0707V11.409C4.99727 11.5383 4.89219 11.6434 4.76289 11.6434C4.63359 11.6434 4.52852 11.5383 4.52852 11.409V10.3051H1.05469V14.3004H4.52852V13.1969C4.52852 13.0676 4.63359 12.9625 4.76289 12.9625C4.89219 12.9625 4.99727 13.0676 4.99727 13.1969V15.873C4.99727 16.0023 4.89219 16.1074 4.76289 16.1074C4.63359 16.1074 4.52852 16.0023 4.52852 15.873V14.7691H1.05469V18.7645H4.52852V17.6609C4.52852 17.5316 4.63359 17.4266 4.76289 17.4266C4.89219 17.4266 4.99727 17.5316 4.99727 17.6609V18.7645H13.7867V17.3137C13.7867 17.1844 13.8918 17.0793 14.0211 17.0793C14.1504 17.0793 14.2555 17.1844 14.2555 17.3137V18.9988C14.2555 19.1281 14.1504 19.2332 14.0211 19.2332H0.820312C0.691016 19.2332 0.585938 19.1281 0.585938 18.9988V1C0.585938 0.870703 0.691016 0.765625 0.820312 0.765625H19.1797C19.309 0.765625 19.4141 0.870703 19.4141 1Z" fill="#7C8893"/>
</g>
<defs>
<clipPath id="clip0_319_99">
<rect width="20" height="20" fill="white"/>
</clipPath>
</defs>
</svg>
