<svg width="60" height="60" viewBox="0 0 60 60" fill="none" xmlns="http://www.w3.org/2000/svg">
<path fill-rule="evenodd" clip-rule="evenodd" d="M50.0176 59.4026H9.98242C4.46397 59.4026 0 54.9386 0 49.4202V10.5449C0 5.06163 4.46397 0.597656 9.98242 0.597656H50.0176C55.5009 0.597656 59.9649 5.06163 59.9649 10.5449V49.4202C59.9649 54.9386 55.5009 59.4026 50.0176 59.4026Z" fill="#EAEAEA"/>
<path fill-rule="evenodd" clip-rule="evenodd" d="M59.9649 29.4198V49.4198C59.9649 52.4778 58.6292 55.1843 56.4499 57.0121L30.0527 32.8644C29.3497 33.0753 28.8225 32.1966 29.3849 31.6694L40.0352 21.8275C43.3744 18.7344 48.6116 18.9101 52.232 22.2493L59.9649 29.4198Z" fill="#9A9A9A"/>
<path fill-rule="evenodd" clip-rule="evenodd" d="M22.3548 19.2619C19.8944 19.2619 17.8557 17.2232 17.8557 14.7276C17.8557 12.2672 19.8944 10.2285 22.3548 10.2285C24.8504 10.2285 26.854 12.2672 26.854 14.7276C26.854 17.2232 24.8504 19.2619 22.3548 19.2619Z" fill="#BBBCBC"/>
<path fill-rule="evenodd" clip-rule="evenodd" d="M22.3549 9.31473C21.3707 9.31473 21.6519 7.83846 21.6519 6.46763C21.6519 5.5186 23.0579 5.5186 23.0579 6.46763C23.0579 7.83846 23.3391 9.31473 22.3549 9.31473Z" fill="#BBBCBC"/>
<path fill-rule="evenodd" clip-rule="evenodd" d="M25.4128 10.1227C24.8856 10.1227 24.5341 9.56031 24.8153 9.06822C25.4831 7.87314 26.0104 6.46717 26.854 6.95926C27.6975 7.45135 26.7134 8.61128 26.0455 9.77121C25.9049 10.0173 25.6589 10.1227 25.4128 10.1227Z" fill="#BBBCBC"/>
<path fill-rule="evenodd" clip-rule="evenodd" d="M27.6625 12.373C26.9595 12.373 26.6783 11.424 27.311 11.0725C28.506 10.3695 29.666 9.38531 30.1581 10.264C30.7204 11.2482 27.8733 12.373 27.6625 12.373Z" fill="#BBBCBC"/>
<path fill-rule="evenodd" clip-rule="evenodd" d="M30.6501 15.4305C29.2441 15.4305 27.803 15.7468 27.803 14.7275C27.803 13.7433 29.2441 14.0245 30.6501 14.0245C31.564 14.0245 31.564 15.4305 30.6501 15.4305Z" fill="#BBBCBC"/>
<path fill-rule="evenodd" clip-rule="evenodd" d="M29.5255 19.5781C29.174 19.5781 27.8031 18.6994 27.3111 18.4182C26.5378 17.9612 27.2408 16.731 28.014 17.188C29.2091 17.8909 30.6502 18.383 30.1582 19.2266C30.0176 19.4727 29.7715 19.5781 29.5255 19.5781Z" fill="#BBBCBC"/>
<path fill-rule="evenodd" clip-rule="evenodd" d="M26.5025 22.6367C25.8698 22.6367 25.4129 21.4065 24.8153 20.4223C24.3584 19.6139 25.5535 18.9109 26.0455 19.7193C26.4673 20.4575 28.0842 22.6367 26.5025 22.6367Z" fill="#BBBCBC"/>
<path fill-rule="evenodd" clip-rule="evenodd" d="M22.3549 23.7259C21.3707 23.7259 21.6519 22.2847 21.6519 20.8788C21.6519 19.9649 23.0579 19.9649 23.0579 20.8788C23.0579 22.2496 23.3391 23.7259 22.3549 23.7259Z" fill="#BBBCBC"/>
<path fill-rule="evenodd" clip-rule="evenodd" d="M18.2073 22.6365C17.68 22.6365 17.3285 22.0389 17.6097 21.582C18.2776 20.3869 18.8048 18.9458 19.6484 19.4379C20.492 19.93 19.5078 21.0899 18.84 22.285C18.6994 22.4959 18.4533 22.6365 18.2073 22.6365Z" fill="#BBBCBC"/>
<path fill-rule="evenodd" clip-rule="evenodd" d="M15.1844 19.5784C14.4814 19.5784 14.2002 18.6294 14.8329 18.2779C16.028 17.5749 17.1528 16.6259 17.6449 17.4694C18.1721 18.313 16.731 18.8051 15.5359 19.5081C15.4305 19.5432 15.2899 19.5784 15.1844 19.5784Z" fill="#BBBCBC"/>
<path fill-rule="evenodd" clip-rule="evenodd" d="M16.2389 15.4305C14.833 15.4305 13.3567 15.7468 13.3567 14.7275C13.3567 13.7433 14.833 14.0245 16.2389 14.0245C17.1528 14.0245 17.1528 15.4305 16.2389 15.4305Z" fill="#BBBCBC"/>
<path fill-rule="evenodd" clip-rule="evenodd" d="M17.0473 12.373C16.6958 12.373 15.2898 11.4943 14.8329 11.2131C14.0244 10.7562 14.7274 9.52594 15.5359 9.98288C16.7309 10.6859 18.1369 11.178 17.6448 12.0215C17.5394 12.2676 17.2933 12.373 17.0473 12.373Z" fill="#BBBCBC"/>
<path fill-rule="evenodd" clip-rule="evenodd" d="M19.2969 10.1229C18.6642 10.1229 18.1721 8.92783 17.6097 7.90849C17.1528 7.13521 18.3479 6.39707 18.84 7.20551C19.2618 7.94364 20.8786 10.1229 19.2969 10.1229Z" fill="#BBBCBC"/>
<path fill-rule="evenodd" clip-rule="evenodd" d="M50.0176 59.4026H9.98243C4.46397 59.4026 0 54.9386 0 49.4202V43.023L15.4306 28.7523C18.7698 25.6592 24.007 25.8349 27.6274 29.1741L57.0826 56.45C55.29 58.2778 52.7944 59.4026 50.0176 59.4026Z" fill="#7F8080"/>
</svg>
