<svg width="366" height="294" viewBox="0 0 366 294" fill="none" xmlns="http://www.w3.org/2000/svg">
<rect width="366" height="294" fill="#DADADA"/>
<g clip-path="url(#clip0_403_176)">
<path fill-rule="evenodd" clip-rule="evenodd" d="M203.018 176.403H162.982C157.464 176.403 153 171.939 153 166.42V127.545C153 122.062 157.464 117.598 162.982 117.598H203.018C208.501 117.598 212.965 122.062 212.965 127.545V166.42C212.965 171.939 208.501 176.403 203.018 176.403Z" fill="#EAEAEA"/>
<path fill-rule="evenodd" clip-rule="evenodd" d="M212.965 146.42V166.42C212.965 169.478 211.629 172.184 209.45 174.012L183.053 149.864C182.35 150.075 181.823 149.197 182.385 148.669L193.035 138.828C196.374 135.734 201.612 135.91 205.232 139.249L212.965 146.42Z" fill="#9A9A9A"/>
<path fill-rule="evenodd" clip-rule="evenodd" d="M175.355 136.262C172.894 136.262 170.856 134.223 170.856 131.728C170.856 129.267 172.894 127.229 175.355 127.229C177.85 127.229 179.854 129.267 179.854 131.728C179.854 134.223 177.85 136.262 175.355 136.262Z" fill="#BBBCBC"/>
<path fill-rule="evenodd" clip-rule="evenodd" d="M175.355 126.315C174.371 126.315 174.652 124.838 174.652 123.468C174.652 122.519 176.058 122.519 176.058 123.468C176.058 124.838 176.339 126.315 175.355 126.315Z" fill="#BBBCBC"/>
<path fill-rule="evenodd" clip-rule="evenodd" d="M178.413 127.123C177.886 127.123 177.534 126.56 177.815 126.068C178.483 124.873 179.01 123.467 179.854 123.959C180.698 124.451 179.713 125.611 179.046 126.771C178.905 127.017 178.659 127.123 178.413 127.123Z" fill="#BBBCBC"/>
<path fill-rule="evenodd" clip-rule="evenodd" d="M180.662 129.373C179.959 129.373 179.678 128.424 180.311 128.072C181.506 127.369 182.666 126.385 183.158 127.264C183.72 128.248 180.873 129.373 180.662 129.373Z" fill="#BBBCBC"/>
<path fill-rule="evenodd" clip-rule="evenodd" d="M183.65 132.43C182.244 132.43 180.803 132.747 180.803 131.727C180.803 130.743 182.244 131.024 183.65 131.024C184.564 131.024 184.564 132.43 183.65 132.43Z" fill="#BBBCBC"/>
<path fill-rule="evenodd" clip-rule="evenodd" d="M182.525 136.578C182.174 136.578 180.803 135.699 180.311 135.418C179.538 134.961 180.241 133.731 181.014 134.188C182.209 134.891 183.65 135.383 183.158 136.227C183.018 136.473 182.772 136.578 182.525 136.578Z" fill="#BBBCBC"/>
<path fill-rule="evenodd" clip-rule="evenodd" d="M179.502 139.637C178.87 139.637 178.413 138.407 177.815 137.422C177.358 136.614 178.553 135.911 179.046 136.719C179.467 137.457 181.084 139.637 179.502 139.637Z" fill="#BBBCBC"/>
<path fill-rule="evenodd" clip-rule="evenodd" d="M175.355 140.726C174.371 140.726 174.652 139.285 174.652 137.879C174.652 136.965 176.058 136.965 176.058 137.879C176.058 139.25 176.339 140.726 175.355 140.726Z" fill="#BBBCBC"/>
<path fill-rule="evenodd" clip-rule="evenodd" d="M171.207 139.636C170.68 139.636 170.329 139.039 170.61 138.582C171.278 137.387 171.805 135.946 172.648 136.438C173.492 136.93 172.508 138.09 171.84 139.285C171.699 139.496 171.453 139.636 171.207 139.636Z" fill="#BBBCBC"/>
<path fill-rule="evenodd" clip-rule="evenodd" d="M168.184 136.578C167.481 136.578 167.2 135.629 167.833 135.278C169.028 134.575 170.153 133.626 170.645 134.469C171.172 135.313 169.731 135.805 168.536 136.508C168.43 136.543 168.29 136.578 168.184 136.578Z" fill="#BBBCBC"/>
<path fill-rule="evenodd" clip-rule="evenodd" d="M169.239 132.43C167.833 132.43 166.357 132.747 166.357 131.727C166.357 130.743 167.833 131.024 169.239 131.024C170.153 131.024 170.153 132.43 169.239 132.43Z" fill="#BBBCBC"/>
<path fill-rule="evenodd" clip-rule="evenodd" d="M170.047 129.373C169.696 129.373 168.29 128.494 167.833 128.213C167.024 127.756 167.727 126.526 168.536 126.983C169.731 127.686 171.137 128.178 170.645 129.022C170.539 129.268 170.293 129.373 170.047 129.373Z" fill="#BBBCBC"/>
<path fill-rule="evenodd" clip-rule="evenodd" d="M172.297 127.123C171.664 127.123 171.172 125.928 170.61 124.908C170.153 124.135 171.348 123.397 171.84 124.206C172.262 124.944 173.879 127.123 172.297 127.123Z" fill="#BBBCBC"/>
<path fill-rule="evenodd" clip-rule="evenodd" d="M203.018 176.403H162.982C157.464 176.403 153 171.939 153 166.42V160.023L168.431 145.752C171.77 142.659 177.007 142.835 180.627 146.174L210.083 173.45C208.29 175.278 205.794 176.403 203.018 176.403Z" fill="#7F8080"/>
</g>
<defs>
<clipPath id="clip0_403_176">
<rect width="60" height="60" fill="white" transform="translate(153 117)"/>
</clipPath>
</defs>
</svg>
